<svg width="20" height="33" viewBox="0 0 20 33" fill="none" xmlns="http://www.w3.org/2000/svg">
<path d="M20 13.3605L17.8127 12.7914C17.4206 14.3205 16.5896 15.6976 15.4248 16.7488C14.2599 17.8 12.8134 18.4781 11.2681 18.6974C9.72272 18.9168 8.14781 18.6675 6.74232 17.9811C5.33683 17.2948 4.16382 16.2021 3.37148 14.8411C2.57914 13.4802 2.20303 11.912 2.29066 10.3348C2.37829 8.75756 2.92573 7.24199 3.86382 5.97957C4.8019 4.71714 6.08855 3.76451 7.5612 3.24202C9.03385 2.71953 10.6264 2.65062 12.1378 3.04401L12.701 0.830807C10.4978 0.250658 8.16592 0.437391 6.08025 1.36098C3.99459 2.28457 2.27631 3.89136 1.20169 5.923C0.127068 7.95465 -0.241462 10.2931 0.155353 12.5624C0.552168 14.8317 1.69127 16.9 3.38952 18.4347V32.5L10.1615 27.9296L16.9334 32.5V18.4553C18.4324 17.1027 19.4999 15.3292 20 13.3605ZM14.6761 28.2301L10.1615 25.1828L5.64684 28.2301V19.9886C7.04754 20.701 8.59315 21.0725 10.1607 21.0737C11.7282 21.0749 13.2744 20.7057 14.6761 19.9955V28.2301Z" fill="white"/>
</svg>
