<svg width="28" height="30" viewBox="0 0 28 30" fill="none" xmlns="http://www.w3.org/2000/svg">
<rect width="28" height="30" rx="5" fill="#F5334A" fill-opacity="0.1"/>
<path opacity="0.5" d="M7.02465 14.6719C7.02465 13.2985 7.33132 12.0719 7.94465 10.9919C8.57132 9.89854 9.41799 9.05187 10.4847 8.45187C11.5647 7.83854 12.7713 7.53187 14.1047 7.53187C15.6647 7.53187 17.0313 7.93187 18.2047 8.73187C19.378 9.53187 20.198 10.6385 20.6647 12.0519H17.4447C17.1247 11.3852 16.6713 10.8852 16.0847 10.5519C15.5113 10.2185 14.8447 10.0519 14.0847 10.0519C13.2713 10.0519 12.5447 10.2452 11.9047 10.6319C11.278 11.0052 10.7847 11.5385 10.4247 12.2319C10.078 12.9252 9.90465 13.7385 9.90465 14.6719C9.90465 15.5919 10.078 16.4052 10.4247 17.1119C10.7847 17.8052 11.278 18.3452 11.9047 18.7319C12.5447 19.1052 13.2713 19.2919 14.0847 19.2919C14.8447 19.2919 15.5113 19.1252 16.0847 18.7919C16.6713 18.4452 17.1247 17.9385 17.4447 17.2719H20.6647C20.198 18.6985 19.378 19.8119 18.2047 20.6119C17.0447 21.3985 15.678 21.7919 14.1047 21.7919C12.7713 21.7919 11.5647 21.4919 10.4847 20.8919C9.41799 20.2785 8.57132 19.4319 7.94465 18.3519C7.33132 17.2719 7.02465 16.0452 7.02465 14.6719Z" fill="#F5334A"/>
</svg>
