<svg width="61" height="60" viewBox="0 0 61 60" fill="none" xmlns="http://www.w3.org/2000/svg">
<circle cx="30.6875" cy="30" r="30" fill="#EC5F70"/>
<path d="M16.8951 30.0161C16.8951 28.6561 17.2018 27.4361 17.8151 26.3561C18.4284 25.2628 19.2618 24.4094 20.3151 23.7961C21.3818 23.1828 22.5618 22.8761 23.8551 22.8761C25.3751 22.8761 26.7018 23.2428 27.8351 23.9761C28.9684 24.7094 29.7951 25.7494 30.3151 27.0961H28.1351C27.7484 26.2561 27.1884 25.6094 26.4551 25.1561C25.7351 24.7028 24.8684 24.4761 23.8551 24.4761C22.8818 24.4761 22.0084 24.7028 21.2351 25.1561C20.4618 25.6094 19.8551 26.2561 19.4151 27.0961C18.9751 27.9228 18.7551 28.8961 18.7551 30.0161C18.7551 31.1228 18.9751 32.0961 19.4151 32.9361C19.8551 33.7628 20.4618 34.4028 21.2351 34.8561C22.0084 35.3094 22.8818 35.5361 23.8551 35.5361C24.8684 35.5361 25.7351 35.3161 26.4551 34.8761C27.1884 34.4228 27.7484 33.7761 28.1351 32.9361H30.3151C29.7951 34.2694 28.9684 35.3028 27.8351 36.0361C26.7018 36.7561 25.3751 37.1161 23.8551 37.1161C22.5618 37.1161 21.3818 36.8161 20.3151 36.2161C19.2618 35.6028 18.4284 34.7561 17.8151 33.6761C17.2018 32.5961 16.8951 31.3761 16.8951 30.0161ZM43.7643 23.0561V36.9961H41.9443V30.6761H34.8443V36.9961H33.0243V23.0561H34.8443V29.1761H41.9443V23.0561H43.7643Z" fill="white"/>
</svg>
