<svg width="63" height="60" viewBox="0 0 63 60" fill="none" xmlns="http://www.w3.org/2000/svg">
<ellipse cx="31.1404" cy="30" rx="31.1404" ry="30" fill="#EC5F70"/>
<path d="M31.8678 36.9771C30.6569 36.9771 29.4318 36.6701 28.4774 36.0702L19.9015 30.5868C18.306 29.5683 17.3516 27.8521 17.3516 25.9825C17.3516 24.1128 18.306 22.3966 19.9015 21.3781L28.4916 15.9087C30.4005 14.6948 33.3778 14.6948 35.2725 15.9226L43.8056 21.406C45.3869 22.4246 46.3413 24.1407 46.3413 25.9964C46.3413 27.8521 45.3869 29.5683 43.8056 30.5868L35.2725 36.0702C34.318 36.6841 33.0929 36.9771 31.8678 36.9771ZM31.8678 17.0946C31.0558 17.0946 30.2438 17.276 29.6597 17.6667L21.0839 23.1361C20.0867 23.778 19.5026 24.8105 19.5026 25.9825C19.5026 27.1545 20.0725 28.1869 21.0839 28.8288L29.6597 34.3121C30.8421 35.0656 32.922 35.0656 34.1044 34.3121L42.6375 28.8288C43.6347 28.1869 44.2045 27.1545 44.2045 25.9825C44.2045 24.8105 43.6347 23.778 42.6375 23.1361L34.1044 17.6528C33.506 17.29 32.694 17.0946 31.8678 17.0946Z" fill="white"/>
<path d="M31.8525 44.9996C31.2257 44.9996 30.5846 44.9159 30.0718 44.7484L25.5275 43.2695C23.3764 42.5718 21.6812 40.2696 21.6954 38.0512L21.7096 31.5074C21.7096 30.9353 22.194 30.4609 22.7781 30.4609C23.3621 30.4609 23.8465 30.9353 23.8465 31.5074L23.8322 38.0512C23.8322 39.3627 24.9434 40.8696 26.2113 41.2882L30.7556 42.7672C31.3254 42.9485 32.3796 42.9485 32.9494 42.7672L37.4938 41.2882C38.7616 40.8696 39.8728 39.3627 39.8728 38.0651V31.5911C39.8728 31.019 40.3571 30.5447 40.9412 30.5447C41.5253 30.5447 42.0096 31.019 42.0096 31.5911V38.0651C42.0096 40.2836 40.3286 42.5718 38.1775 43.2834L33.6332 44.7624C33.1204 44.9159 32.4793 44.9996 31.8525 44.9996Z" fill="white"/>
<path d="M45.2481 35.234C44.664 35.234 44.1797 34.7596 44.1797 34.1876V25.816C44.1797 25.2439 44.664 24.7695 45.2481 24.7695C45.8322 24.7695 46.3165 25.2439 46.3165 25.816V34.1876C46.3165 34.7596 45.8322 35.234 45.2481 35.234Z" fill="white"/>
</svg>
