<svg width="50" height="50" viewBox="0 0 50 50" fill="none" xmlns="http://www.w3.org/2000/svg">
<circle cx="25" cy="25" r="25" fill="#F82083" fill-opacity="0.6"/>
<path d="M27.5 12.5C30 12.5 31.25 13.7625 31.25 16.2875V25.1C31.25 27.5875 29.4875 28.55 27.325 27.25L25.675 26.25C25.3 26.025 24.7 26.025 24.325 26.25L22.675 27.25C20.5125 28.55 18.75 27.5875 18.75 25.1V16.2875C18.75 13.7625 20 12.5 22.5 12.5H27.5Z" stroke="white" stroke-width="1.5" stroke-linecap="round" stroke-linejoin="round"/>
<path d="M18.525 16.2406C14.2625 16.9531 12.5 19.5781 12.5 24.8781V28.6656C12.5 34.9781 15 37.5031 21.25 37.5031H28.75C35 37.5031 37.5 34.9781 37.5 28.6656V24.8781C37.5 19.4906 35.675 16.8531 31.25 16.2031" stroke="white" stroke-width="1.5" stroke-linecap="round" stroke-linejoin="round"/>
</svg>
