<svg width="36" height="36" viewBox="0 0 36 36" fill="none" xmlns="http://www.w3.org/2000/svg">
<path d="M29.25 4.5H6.75C5.50736 4.5 4.5 5.50736 4.5 6.75V29.25C4.5 30.4926 5.50736 31.5 6.75 31.5H29.25C30.4926 31.5 31.5 30.4926 31.5 29.25V6.75C31.5 5.50736 30.4926 4.5 29.25 4.5Z" stroke="#EC5F70" stroke-width="3" stroke-linecap="round" stroke-linejoin="round"/>
<path d="M15.75 12.75H9.75V23.25H15.375M9.75 18H15.375M19.5 14.25V23.25V18.375C19.5 17.4799 19.8556 16.6215 20.4885 15.9885C21.1215 15.3556 21.9799 15 22.875 15C23.7701 15 24.6285 15.3556 25.2615 15.9885C25.8944 16.6215 26.25 17.4799 26.25 18.375V23.25" stroke="#EC5F70" stroke-width="3" stroke-linecap="round" stroke-linejoin="round"/>
</svg>
