<svg width="61" height="60" viewBox="0 0 61 60" fill="none" xmlns="http://www.w3.org/2000/svg">
<circle cx="30.0859" cy="30" r="30" fill="#EC5F70"/>
<path d="M18.394 20.9909C17.9147 21.1818 17.5312 21.7545 17.5312 22.2591V26.7864C17.5312 27.5364 18.1475 28.15 18.9007 28.15H43.5507C44.3039 28.15 44.9201 27.5364 44.9201 26.7864V22.2591C44.9201 21.7545 44.5367 21.1818 44.0574 20.9909L31.7324 16.0818C31.4585 15.9727 30.9929 15.9727 30.719 16.0818L24.0909 18.7273" stroke="white" stroke-width="2" stroke-miterlimit="10" stroke-linecap="round" stroke-linejoin="round"/>
<path d="M44.9201 43.1499H17.5312V39.0589C17.5312 38.3089 18.1475 37.6953 18.9007 37.6953H43.5507C44.3039 37.6953 44.9201 38.3089 44.9201 39.0589V43.1499Z" stroke="white" stroke-width="2" stroke-miterlimit="10" stroke-linecap="round" stroke-linejoin="round"/>
<path d="M20.2656 37.6939V28.1484" stroke="white" stroke-width="2" stroke-miterlimit="10" stroke-linecap="round" stroke-linejoin="round"/>
<path d="M25.7422 37.6939V28.1484" stroke="white" stroke-width="2" stroke-miterlimit="10" stroke-linecap="round" stroke-linejoin="round"/>
<path d="M31.2266 37.6939V28.1484" stroke="white" stroke-width="2" stroke-miterlimit="10" stroke-linecap="round" stroke-linejoin="round"/>
<path d="M36.6953 37.6939V28.1484" stroke="white" stroke-width="2" stroke-miterlimit="10" stroke-linecap="round" stroke-linejoin="round"/>
<path d="M42.1719 37.6939V28.1484" stroke="white" stroke-width="2" stroke-miterlimit="10" stroke-linecap="round" stroke-linejoin="round"/>
<path d="M16.1562 43.1484H46.284" stroke="white" stroke-width="2" stroke-miterlimit="10" stroke-linecap="round" stroke-linejoin="round"/>
<path d="M31.2182 24.7393C32.3527 24.7393 33.2724 23.8236 33.2724 22.6939C33.2724 21.5642 32.3527 20.6484 31.2182 20.6484C30.0838 20.6484 29.1641 21.5642 29.1641 22.6939C29.1641 23.8236 30.0838 24.7393 31.2182 24.7393Z" stroke="white" stroke-width="2" stroke-miterlimit="10" stroke-linecap="round" stroke-linejoin="round"/>
</svg>
