<svg width="25" height="23" viewBox="0 0 25 23" fill="none" xmlns="http://www.w3.org/2000/svg">
<path fill-rule="evenodd" clip-rule="evenodd" d="M12.6823 1.87906C10.5149 1.87906 8.43632 2.69084 6.90374 4.1358C5.37116 5.58077 4.51016 7.54057 4.51016 9.58406C4.51016 12.5684 6.56856 15.4587 8.81673 17.6961C9.92087 18.795 11.0283 19.6944 11.8608 20.3194C12.1823 20.5608 12.4616 20.7603 12.6823 20.9138C12.9031 20.7603 13.1824 20.5608 13.5039 20.3194C14.3364 19.6944 15.4438 18.795 16.548 17.6961C18.7961 15.4587 20.8545 12.5684 20.8545 9.58406C20.8545 7.54057 19.9935 5.58077 18.461 4.1358C16.9284 2.69084 14.8497 1.87906 12.6823 1.87906ZM12.6823 22.0424C12.1411 22.8079 12.1408 22.8077 12.1405 22.8075L12.1377 22.8057L12.131 22.8015L12.1078 22.7867C12.0882 22.7741 12.06 22.756 12.024 22.7325C11.952 22.6855 11.8485 22.6169 11.718 22.528C11.4569 22.3503 11.0873 22.0908 10.6451 21.7588C9.7624 21.0961 8.58285 20.1388 7.39999 18.9616C5.07418 16.6469 2.55859 13.308 2.55859 9.58406C2.55859 7.05257 3.6252 4.62476 5.52377 2.83473C7.42234 1.04469 9.99736 0.0390625 12.6823 0.0390625C15.3673 0.0390625 17.9423 1.04469 19.8409 2.83473C21.7395 4.62476 22.8061 7.05257 22.8061 9.58406C22.8061 13.308 20.2905 16.6469 17.9647 18.9616C16.7818 20.1388 15.6023 21.0961 14.7196 21.7588C14.2774 22.0908 13.9078 22.3503 13.6467 22.528C13.5162 22.6169 13.4127 22.6855 13.3407 22.7325C13.3047 22.756 13.2765 22.7741 13.2568 22.7867L13.2337 22.8015L13.227 22.8057L13.2249 22.8071C13.2246 22.8073 13.2236 22.8079 12.6823 22.0424ZM12.6823 22.0424L13.2236 22.8079C12.8958 23.0139 12.4683 23.0136 12.1405 22.8075L12.6823 22.0424Z" fill="#F5334A" fill-opacity="0.6"/>
<path fill-rule="evenodd" clip-rule="evenodd" d="M12.6814 7.62906C11.5362 7.62906 10.6078 8.50435 10.6078 9.58406C10.6078 10.6638 11.5362 11.5391 12.6814 11.5391C13.8265 11.5391 14.7549 10.6638 14.7549 9.58406C14.7549 8.50435 13.8265 7.62906 12.6814 7.62906ZM8.65625 9.58406C8.65625 7.48814 10.4584 5.78906 12.6814 5.78906C14.9044 5.78906 16.7065 7.48814 16.7065 9.58406C16.7065 11.68 14.9044 13.3791 12.6814 13.3791C10.4584 13.3791 8.65625 11.68 8.65625 9.58406Z" fill="#F5334A" fill-opacity="0.6"/>
</svg>
