<svg width="20" height="20" viewBox="0 0 20 20" fill="none" xmlns="http://www.w3.org/2000/svg">
<path d="M3.15405 8.57141H5.25675C7.35946 8.57141 8.41081 7.49998 8.41081 5.35713V3.21428C8.41081 1.07143 7.35946 0 5.25675 0H3.15405C1.05135 0 0 1.07143 0 3.21428V5.35713C0 7.49998 1.05135 8.57141 3.15405 8.57141Z" fill="white"/>
<path d="M14.74 8.57141H16.8427C18.9454 8.57141 19.9967 7.49998 19.9967 5.35713V3.21428C19.9967 1.07143 18.9454 0 16.8427 0H14.74C12.6373 0 11.5859 1.07143 11.5859 3.21428V5.35713C11.5859 7.49998 12.6373 8.57141 14.74 8.57141Z" fill="white"/>
<path d="M14.74 20.0011H16.8427C18.9454 20.0011 19.9967 18.9297 19.9967 16.7868V14.644C19.9967 12.5011 18.9454 11.4297 16.8427 11.4297H14.74C12.6373 11.4297 11.5859 12.5011 11.5859 14.644V16.7868C11.5859 18.9297 12.6373 20.0011 14.74 20.0011Z" fill="white"/>
<path d="M3.15405 20.0011H5.25675C7.35946 20.0011 8.41081 18.9297 8.41081 16.7868V14.644C8.41081 12.5011 7.35946 11.4297 5.25675 11.4297H3.15405C1.05135 11.4297 0 12.5011 0 14.644V16.7868C0 18.9297 1.05135 20.0011 3.15405 20.0011Z" fill="white"/>
</svg>
