<svg width="20" height="21" viewBox="0 0 20 21" fill="none" xmlns="http://www.w3.org/2000/svg">
<path d="M3.15405 9.07141H5.25675C7.35946 9.07141 8.41081 7.99998 8.41081 5.85713V3.71428C8.41081 1.57143 7.35946 0.5 5.25675 0.5H3.15405C1.05135 0.5 0 1.57143 0 3.71428V5.85713C0 7.99998 1.05135 9.07141 3.15405 9.07141Z" fill="#EC5F70"/>
<path d="M14.74 9.07141H16.8427C18.9454 9.07141 19.9967 7.99998 19.9967 5.85713V3.71428C19.9967 1.57143 18.9454 0.5 16.8427 0.5H14.74C12.6373 0.5 11.5859 1.57143 11.5859 3.71428V5.85713C11.5859 7.99998 12.6373 9.07141 14.74 9.07141Z" fill="#EC5F70"/>
<path d="M14.74 20.5011H16.8427C18.9454 20.5011 19.9967 19.4297 19.9967 17.2868V15.144C19.9967 13.0011 18.9454 11.9297 16.8427 11.9297H14.74C12.6373 11.9297 11.5859 13.0011 11.5859 15.144V17.2868C11.5859 19.4297 12.6373 20.5011 14.74 20.5011Z" fill="#EC5F70"/>
<path d="M3.15405 20.5011H5.25675C7.35946 20.5011 8.41081 19.4297 8.41081 17.2868V15.144C8.41081 13.0011 7.35946 11.9297 5.25675 11.9297H3.15405C1.05135 11.9297 0 13.0011 0 15.144V17.2868C0 19.4297 1.05135 20.5011 3.15405 20.5011Z" fill="#EC5F70"/>
</svg>
