<svg width="25" height="22" viewBox="0 0 25 22" fill="none" xmlns="http://www.w3.org/2000/svg">
<path d="M13.5461 10.0781H7.125" stroke="white" stroke-width="2" stroke-linecap="round" stroke-linejoin="round"/>
<path d="M1.77344 10.0771V5.03062C1.77344 2.80231 3.53924 1 5.72241 1H11.7368C13.92 1 15.6858 2.38723 15.6858 4.61554" stroke="white" stroke-width="2" stroke-linecap="round" stroke-linejoin="round"/>
<path d="M18.3399 11.2257C17.8048 11.75 17.5479 12.5583 17.762 13.3884C18.0295 14.4043 19.0141 15.0487 20.0415 15.0487H21.0367V16.6326C21.0367 19.0466 19.1211 21.0018 16.756 21.0018H6.05417C3.68906 21.0018 1.77344 19.0466 1.77344 16.6326V8.98642C1.77344 6.57242 3.68906 4.61719 6.05417 4.61719H16.756C19.1104 4.61719 21.0367 6.58334 21.0367 8.98642V10.5703H19.8809C19.2816 10.5703 18.7358 10.8106 18.3399 11.2257Z" stroke="white" stroke-width="2" stroke-linecap="round" stroke-linejoin="round"/>
<path d="M23.1766 11.6845V13.9346C23.1766 14.5463 22.6842 15.0488 22.0742 15.0488H20.0088C18.853 15.0488 17.7936 14.1859 17.6973 13.0062C17.6331 12.318 17.8898 11.6735 18.3393 11.2257C18.7352 10.8106 19.2811 10.5703 19.8804 10.5703H22.0742C22.6842 10.5703 23.1766 11.0728 23.1766 11.6845Z" stroke="white" stroke-width="2" stroke-linecap="round" stroke-linejoin="round"/>
</svg>
