<svg width="31" height="30" viewBox="0 0 31 30" fill="none" xmlns="http://www.w3.org/2000/svg">
<ellipse cx="15.785" cy="15" rx="15.121" ry="15" fill="#F82083" fill-opacity="0.1"/>
<path d="M12.279 7.60207C12.279 7.44239 12.2156 7.28925 12.1027 7.17634C11.9898 7.06343 11.8367 7 11.677 7C11.5173 7 11.3642 7.06343 11.2512 7.17634C11.1383 7.28925 11.0749 7.44239 11.0749 7.60207V8.87045C9.91892 8.96276 9.16111 9.18914 8.60399 9.74707C8.04606 10.3042 7.81968 11.0628 7.72656 12.218H23.655C23.5619 11.062 23.3355 10.3042 22.7776 9.74707C22.2205 9.18914 21.4619 8.96276 20.3067 8.86964V7.60207C20.3067 7.44239 20.2433 7.28925 20.1304 7.17634C20.0175 7.06343 19.8643 7 19.7046 7C19.545 7 19.3918 7.06343 19.2789 7.17634C19.166 7.28925 19.1026 7.44239 19.1026 7.60207V8.81666C18.5687 8.80622 17.9699 8.80622 17.2963 8.80622H14.0853C13.4118 8.80622 12.8129 8.80622 12.279 8.81666V7.60207Z" fill="#D04E62" fill-opacity="0.8"/>
<path fill-rule="evenodd" clip-rule="evenodd" d="M7.66406 15.2281C7.66406 14.5546 7.66406 13.9557 7.6745 13.4219H23.7089C23.7194 13.9557 23.7194 14.5546 23.7194 15.2281V16.8336C23.7194 19.8609 23.7194 21.3749 22.7785 22.3149C21.8385 23.2558 20.3245 23.2558 17.2973 23.2558H14.0862C11.059 23.2558 9.54494 23.2558 8.6049 22.3149C7.66406 21.3749 7.66406 19.8609 7.66406 16.8336V15.2281ZM19.7056 16.8336C19.9185 16.8336 20.1226 16.7491 20.2732 16.5985C20.4237 16.448 20.5083 16.2438 20.5083 16.0309C20.5083 15.818 20.4237 15.6138 20.2732 15.4632C20.1226 15.3127 19.9185 15.2281 19.7056 15.2281C19.4926 15.2281 19.2885 15.3127 19.1379 15.4632C18.9874 15.6138 18.9028 15.818 18.9028 16.0309C18.9028 16.2438 18.9874 16.448 19.1379 16.5985C19.2885 16.7491 19.4926 16.8336 19.7056 16.8336ZM19.7056 20.0447C19.9185 20.0447 20.1226 19.9601 20.2732 19.8096C20.4237 19.659 20.5083 19.4548 20.5083 19.2419C20.5083 19.029 20.4237 18.8248 20.2732 18.6743C20.1226 18.5237 19.9185 18.4392 19.7056 18.4392C19.4926 18.4392 19.2885 18.5237 19.1379 18.6743C18.9874 18.8248 18.9028 19.029 18.9028 19.2419C18.9028 19.4548 18.9874 19.659 19.1379 19.8096C19.2885 19.9601 19.4926 20.0447 19.7056 20.0447ZM16.4945 16.0309C16.4945 16.2438 16.4099 16.448 16.2594 16.5985C16.1088 16.7491 15.9046 16.8336 15.6917 16.8336C15.4788 16.8336 15.2746 16.7491 15.1241 16.5985C14.9735 16.448 14.889 16.2438 14.889 16.0309C14.889 15.818 14.9735 15.6138 15.1241 15.4632C15.2746 15.3127 15.4788 15.2281 15.6917 15.2281C15.9046 15.2281 16.1088 15.3127 16.2594 15.4632C16.4099 15.6138 16.4945 15.818 16.4945 16.0309ZM16.4945 19.2419C16.4945 19.4548 16.4099 19.659 16.2594 19.8096C16.1088 19.9601 15.9046 20.0447 15.6917 20.0447C15.4788 20.0447 15.2746 19.9601 15.1241 19.8096C14.9735 19.659 14.889 19.4548 14.889 19.2419C14.889 19.029 14.9735 18.8248 15.1241 18.6743C15.2746 18.5237 15.4788 18.4392 15.6917 18.4392C15.9046 18.4392 16.1088 18.5237 16.2594 18.6743C16.4099 18.8248 16.4945 19.029 16.4945 19.2419ZM11.6779 16.8336C11.8908 16.8336 12.095 16.7491 12.2455 16.5985C12.3961 16.448 12.4807 16.2438 12.4807 16.0309C12.4807 15.818 12.3961 15.6138 12.2455 15.4632C12.095 15.3127 11.8908 15.2281 11.6779 15.2281C11.465 15.2281 11.2608 15.3127 11.1103 15.4632C10.9597 15.6138 10.8751 15.818 10.8751 16.0309C10.8751 16.2438 10.9597 16.448 11.1103 16.5985C11.2608 16.7491 11.465 16.8336 11.6779 16.8336ZM11.6779 20.0447C11.8908 20.0447 12.095 19.9601 12.2455 19.8096C12.3961 19.659 12.4807 19.4548 12.4807 19.2419C12.4807 19.029 12.3961 18.8248 12.2455 18.6743C12.095 18.5237 11.8908 18.4392 11.6779 18.4392C11.465 18.4392 11.2608 18.5237 11.1103 18.6743C10.9597 18.8248 10.8751 19.029 10.8751 19.2419C10.8751 19.4548 10.9597 19.659 11.1103 19.8096C11.2608 19.9601 11.465 20.0447 11.6779 20.0447Z" fill="#D04E62" fill-opacity="0.8"/>
</svg>
