<svg width="31" height="30" viewBox="0 0 31 30" fill="none" xmlns="http://www.w3.org/2000/svg">
<ellipse cx="15.785" cy="15" rx="15.121" ry="15" fill="#F82083" fill-opacity="0.1"/>
<path d="M18.664 15C17.893 15 17.1475 14.6349 16.564 13.9723C15.9966 13.326 15.6501 12.4641 15.589 11.5461C15.5237 10.5669 15.8053 9.66648 16.3817 9.01023C16.9581 8.35398 17.764 8 18.664 8C19.5576 8 20.3657 8.36034 20.9402 9.015C21.5203 9.67602 21.8027 10.5749 21.7374 11.5457C21.6748 12.4649 21.3287 13.3264 20.7624 13.9719C20.1804 14.6349 19.4353 15 18.664 15ZM23.6076 22H13.7207C13.5618 22.0009 13.4047 21.9631 13.2617 21.8895C13.1187 21.816 12.9935 21.7086 12.8957 21.5756C12.7921 21.4315 12.7204 21.2643 12.6863 21.0867C12.6521 20.9091 12.6563 20.7256 12.6985 20.5499C13.0142 19.2052 13.7965 18.0899 14.9605 17.3251C15.9936 16.6466 17.3087 16.2727 18.664 16.2727C20.0458 16.2727 21.3264 16.6307 22.3656 17.3088C23.5322 18.0696 24.3156 19.1912 24.6298 20.5523C24.6715 20.7281 24.6752 20.9116 24.6406 21.0891C24.6061 21.2667 24.5342 21.4336 24.4303 21.5776C24.3327 21.7099 24.2077 21.8168 24.0651 21.89C23.9225 21.9632 23.766 22.0008 23.6076 22ZM11.5765 15.1591C10.2569 15.1591 9.09663 13.8577 8.98901 12.2585C8.93576 11.4391 9.17651 10.6815 9.664 10.1258C10.1463 9.57579 10.8265 9.27273 11.5765 9.27273C12.3265 9.27273 13.0015 9.57738 13.4864 10.1306C13.9776 10.6906 14.2176 11.4467 14.1614 12.2593C14.0537 13.8581 12.8939 15.1591 11.5765 15.1591ZM14.0387 16.4099C13.3791 16.0679 12.523 15.8969 11.5769 15.8969C10.4721 15.8969 9.39926 16.2023 8.55551 16.7568C7.59889 17.3864 6.95539 18.3031 6.69552 19.41C6.65749 19.5692 6.65389 19.7355 6.685 19.8964C6.7161 20.0572 6.78111 20.2086 6.87514 20.3391C6.96437 20.4606 7.07869 20.5587 7.20929 20.626C7.3399 20.6933 7.48331 20.728 7.62851 20.7273H11.791C11.8612 20.7272 11.9293 20.7011 11.9832 20.6533C12.0371 20.6056 12.0736 20.5393 12.0861 20.466C12.0902 20.4409 12.0955 20.4158 12.1015 20.3912C12.4195 19.0365 13.1646 17.8919 14.2656 17.0574C14.3061 17.0265 14.3387 16.9853 14.3604 16.9376C14.3821 16.8899 14.3922 16.8373 14.3898 16.7844C14.3875 16.7315 14.3728 16.6801 14.3469 16.6347C14.3211 16.5894 14.285 16.5517 14.242 16.5249C14.1831 16.4883 14.1156 16.4497 14.0387 16.4099Z" fill="#D04E62" fill-opacity="0.8"/>
</svg>
