<svg width="31" height="30" viewBox="0 0 31 30" fill="none" xmlns="http://www.w3.org/2000/svg">
<ellipse cx="15.785" cy="15" rx="15.121" ry="15" fill="#F82083" fill-opacity="0.1"/>
<path d="M16.0438 4.44531C9.99221 4.44531 5.08594 9.37046 5.08594 15.4453C5.08594 21.5202 9.99221 26.4453 16.0438 26.4453C22.0954 26.4453 27.0016 21.5202 27.0016 15.4453C27.0016 9.37046 22.0954 4.44531 16.0438 4.44531ZM21.1013 17.1376H16.0438C15.8202 17.1376 15.6058 17.0485 15.4478 16.8898C15.2897 16.7311 15.2009 16.5159 15.2009 16.2915V8.67608C15.2009 8.45167 15.2897 8.23645 15.4478 8.07776C15.6058 7.91908 15.8202 7.82993 16.0438 7.82993C16.2673 7.82993 16.4817 7.91908 16.6398 8.07776C16.7979 8.23645 16.8867 8.45167 16.8867 8.67608V15.4453H21.1013C21.3248 15.4453 21.5392 15.5345 21.6973 15.6931C21.8554 15.8518 21.9442 16.0671 21.9442 16.2915C21.9442 16.5159 21.8554 16.7311 21.6973 16.8898C21.5392 17.0485 21.3248 17.1376 21.1013 17.1376Z" fill="#D04E62" fill-opacity="0.8"/>
</svg>
