<svg width="71" height="70" viewBox="0 0 71 70" fill="none" xmlns="http://www.w3.org/2000/svg">
<circle cx="35.6641" cy="35" r="35" fill="#EC5F70"/>
<circle cx="35.1641" cy="35" r="16.5" stroke="white" stroke-width="2"/>
<path d="M36.0241 28.1L35.7641 37.8H33.8641L33.6041 28.1H36.0241ZM34.8841 42.14C34.4707 42.14 34.1241 42 33.8441 41.72C33.5641 41.44 33.4241 41.0933 33.4241 40.68C33.4241 40.2667 33.5641 39.92 33.8441 39.64C34.1241 39.36 34.4707 39.22 34.8841 39.22C35.2841 39.22 35.6241 39.36 35.9041 39.64C36.1841 39.92 36.3241 40.2667 36.3241 40.68C36.3241 41.0933 36.1841 41.44 35.9041 41.72C35.6241 42 35.2841 42.14 34.8841 42.14Z" fill="white"/>
</svg>
