<svg width="30" height="30" viewBox="0 0 30 30" fill="none" xmlns="http://www.w3.org/2000/svg">
<path d="M13.3015 19.4228C13.0225 19.4228 12.7574 19.3111 12.5621 19.1158L9.18623 15.7391C8.78167 15.3344 8.78167 14.6646 9.18623 14.26C9.59079 13.8553 10.2604 13.8553 10.665 14.26L13.3015 16.8972L19.3001 10.8972C19.7046 10.4926 20.3742 10.4926 20.7788 10.8972C21.1833 11.3019 21.1833 11.9717 20.7788 12.3763L14.0408 19.1158C13.8455 19.3111 13.5805 19.4228 13.3015 19.4228Z" fill="#6764FF"/>
<path d="M14.9896 30C14.1107 30 13.2318 29.707 12.5483 29.1209L10.3441 27.2233C10.1209 27.0279 9.56287 26.8326 9.26992 26.8326H6.87048C4.80585 26.8326 3.13182 25.1581 3.13182 23.093V20.707C3.13182 20.414 2.93652 19.8698 2.74122 19.6465L0.857938 17.4279C-0.285979 16.0744 -0.285979 13.9395 0.857938 12.586L2.74122 10.3674C2.93652 10.1442 3.13182 9.6 3.13182 9.30698V6.90698C3.13182 4.84186 4.80585 3.16744 6.87048 3.16744H9.28387C9.57683 3.16744 10.1348 2.95814 10.358 2.77674L12.5622 0.87907C13.9293 -0.293023 16.0637 -0.293023 17.4309 0.87907L19.635 2.77674C19.8582 2.97209 20.4162 3.16744 20.7092 3.16744H23.0807C25.1453 3.16744 26.8194 4.84186 26.8194 6.90698V9.27907C26.8194 9.57209 27.0286 10.1302 27.2239 10.3535L29.1211 12.5581C30.293 13.9256 30.293 16.0605 29.1211 17.4279L27.2239 19.6326C27.0286 19.8558 26.8194 20.414 26.8194 20.707V23.0791C26.8194 25.1442 25.1453 26.8186 23.0807 26.8186H20.7092C20.4162 26.8186 19.8582 27.0279 19.635 27.2093L17.4309 29.107C16.7473 29.707 15.8684 30 14.9896 30ZM6.87048 5.26046C5.96372 5.26046 5.22436 6 5.22436 6.90698V9.29302C5.22436 10.0884 4.8477 11.107 4.33154 11.707L2.44826 13.9256C1.96001 14.4977 1.96001 15.4884 2.44826 16.0605L4.33154 18.2791C4.8477 18.893 5.22436 19.8977 5.22436 20.693V23.0791C5.22436 23.986 5.96372 24.7256 6.87048 24.7256H9.28387C10.093 24.7256 11.1113 25.1023 11.7252 25.6326L13.9293 27.5302C14.5013 28.0186 15.5057 28.0186 16.0777 27.5302L18.2818 25.6326C18.8956 25.1163 19.914 24.7256 20.7231 24.7256H23.0946C24.0014 24.7256 24.7408 23.986 24.7408 23.0791V20.707C24.7408 19.8977 25.1174 18.8791 25.6475 18.2651L27.5448 16.0605C28.033 15.4884 28.033 14.4837 27.5448 13.9116L25.6475 11.707C25.1174 11.093 24.7408 10.0744 24.7408 9.26512V6.90698C24.7408 6 24.0014 5.26046 23.0946 5.26046H20.7231C19.914 5.26046 18.8956 4.88372 18.2818 4.35349L16.0777 2.45581C15.5057 1.96744 14.5013 1.96744 13.9293 2.45581L11.7252 4.36744C11.1113 4.88372 10.079 5.26046 9.28387 5.26046H6.87048Z" fill="#6764FF"/>
</svg>
