<svg width="30" height="30" viewBox="0 0 30 30" fill="none" xmlns="http://www.w3.org/2000/svg">
<path d="M9.53983 15.3855L9.53982 15.3855C9.33048 15.1761 9.33048 14.8229 9.53982 14.6135C9.74911 14.4042 10.1021 14.4042 10.3114 14.6135C10.3114 14.6135 10.3114 14.6135 10.3114 14.6135L12.9479 17.2507L13.3015 17.6044L13.6551 17.2507L19.6537 11.2508C19.8629 11.0414 20.2159 11.0414 20.4252 11.2508C20.6346 11.4602 20.6345 11.8134 20.4252 12.0227L20.4252 12.0228L13.6872 18.7623C13.5846 18.8649 13.4463 18.9228 13.3015 18.9228C13.1566 18.9228 13.0183 18.8649 12.9157 18.7623L9.53983 15.3855Z" stroke="white"/>
<path d="M10.6734 3.16476L10.6789 3.16029L10.6843 3.15566L12.8877 1.25866C12.8878 1.25854 12.888 1.25842 12.8881 1.2583C14.0678 0.247222 15.9253 0.247235 17.105 1.25833C17.1052 1.25844 17.1053 1.25855 17.1054 1.25866L19.3057 3.15299C19.3063 3.1535 19.3069 3.15401 19.3074 3.15452C19.4895 3.31314 19.7537 3.43576 19.9769 3.51593C20.2033 3.59719 20.4789 3.66744 20.7092 3.66744H23.0807C24.8691 3.66744 26.3194 5.11789 26.3194 6.90698V9.27907C26.3194 9.51475 26.396 9.79391 26.4804 10.0184C26.5646 10.2424 26.6906 10.5026 26.8461 10.681C26.8466 10.6816 26.8471 10.6821 26.8476 10.6827L28.7415 12.8835C28.7416 12.8836 28.7417 12.8838 28.7418 12.8839C29.7527 14.0639 29.7527 15.9218 28.742 17.1019C28.7418 17.1021 28.7417 17.1023 28.7415 17.1026L26.8476 19.3033C26.847 19.304 26.8465 19.3046 26.8459 19.3053C26.6905 19.4837 26.5646 19.7437 26.4804 19.9676C26.396 20.1921 26.3194 20.4713 26.3194 20.707V23.0791C26.3194 24.8682 24.8691 26.3186 23.0807 26.3186H20.7092C20.4741 26.3186 20.1953 26.3951 19.9734 26.4766C19.7498 26.5588 19.4944 26.6793 19.3196 26.8213L19.3141 26.8258L19.3088 26.8304L17.1046 28.7281L17.1046 28.728L17.101 28.7312C16.5176 29.2433 15.7595 29.5 14.9896 29.5C14.2193 29.5 13.4588 29.2429 12.8739 28.7415C12.8738 28.7414 12.8738 28.7414 12.8737 28.7413L10.6734 26.847C10.6729 26.8465 10.6723 26.8461 10.6718 26.8456C10.4898 26.6869 10.2255 26.5643 10.0021 26.4841C9.77582 26.4028 9.50023 26.3326 9.26992 26.3326H6.87048C5.0821 26.3326 3.63182 24.8821 3.63182 23.093V20.707C3.63182 20.4756 3.56109 20.2027 3.47943 19.9791C3.39875 19.7581 3.27659 19.5006 3.12042 19.3206L1.23982 17.1052C1.23963 17.1049 1.23945 17.1047 1.23926 17.1045C0.253532 15.9375 0.253579 14.0762 1.2394 12.9093C1.23954 12.9091 1.23968 12.909 1.23982 12.9088L3.12035 10.6934C3.27656 10.5135 3.39873 10.2559 3.47943 10.0349C3.56109 9.81121 3.63182 9.53833 3.63182 9.30698V6.90698C3.63182 5.11789 5.0821 3.66744 6.87048 3.66744H9.28387C9.51896 3.66744 9.7977 3.59099 10.0196 3.50941C10.2432 3.42722 10.4987 3.30676 10.6734 3.16476ZM3.9525 11.3809L3.95249 11.3809L3.95036 11.3834L2.06794 13.601C2.06779 13.6012 2.06763 13.6014 2.06747 13.6015C1.7331 13.9936 1.58207 14.5058 1.58207 14.993C1.58207 15.4801 1.73303 15.9922 2.06723 16.3842C2.06747 16.3845 2.06771 16.3848 2.06794 16.3851L3.94883 18.6008C3.94909 18.6011 3.94935 18.6015 3.94961 18.6018C4.3924 19.129 4.72436 20.02 4.72436 20.693V23.0791C4.72436 24.2621 5.68747 25.2256 6.87048 25.2256H9.28387C9.97363 25.2256 10.8758 25.5596 11.3983 26.0109L11.3989 26.0115L13.6031 27.9092L13.6047 27.9105C13.9978 28.2462 14.5143 28.3965 15.0035 28.3965C15.4927 28.3965 16.0092 28.2462 16.4024 27.9105L16.4039 27.9091L18.6057 26.0135C19.1347 25.5696 20.0391 25.2256 20.7231 25.2256H23.0946C24.2777 25.2256 25.2408 24.2621 25.2408 23.0791V20.707C25.2408 20.017 25.5747 19.1145 26.026 18.5919L26.0265 18.5913L27.9238 16.3866L27.9251 16.3851C28.2607 15.9918 28.411 15.4753 28.411 14.986C28.411 14.4968 28.2607 13.9803 27.9251 13.587L27.9238 13.5855L26.0265 11.3808L26.026 11.3802C25.5747 10.8576 25.2408 9.95513 25.2408 9.26512V6.90698C25.2408 5.72397 24.2777 4.76046 23.0946 4.76046H20.7231C20.0333 4.76046 19.1312 4.42646 18.6087 3.97511L18.608 3.97458L16.4039 2.0769L16.4024 2.07557C16.0092 1.73986 15.4927 1.58953 15.0035 1.58953C14.5143 1.58953 13.9978 1.73986 13.6047 2.07557L13.6047 2.07556L13.6018 2.07808L11.4006 3.98711C10.876 4.42682 9.95953 4.76046 9.28387 4.76046H6.87048C5.68747 4.76046 4.72436 5.72397 4.72436 6.90698V9.29302C4.72436 9.9694 4.39016 10.8721 3.9525 11.3809Z" stroke="white"/>
</svg>
