<svg width="16" height="15" viewBox="0 0 16 15" fill="none" xmlns="http://www.w3.org/2000/svg">
<path d="M5.9423 8.9912C5.65952 8.57791 5.5 8.07761 5.5 7.54105C5.5 6.1054 6.6601 4.94531 8.09575 4.94531C9.5314 4.94531 10.6915 6.1054 10.6915 7.54105C10.6915 8.9767 9.5314 10.1368 8.09575 10.1368" stroke="#15DB1D" stroke-opacity="0.5" stroke-width="1.5" stroke-linecap="round" stroke-linejoin="round"/>
<path d="M12.1262 2.88826C10.9009 2.01817 9.52322 1.54688 8.09483 1.54688C5.53534 1.54688 3.14985 3.05503 1.48943 5.6653C0.836858 6.68767 0.836858 8.4061 1.48943 9.42845C3.14985 12.0387 5.53534 13.5469 8.09483 13.5469C10.6543 13.5469 13.0398 12.0387 14.7003 9.42845C15.3528 8.4061 15.3528 6.68767 14.7003 5.6653" stroke="#15DB1D" stroke-opacity="0.5" stroke-width="1.5" stroke-linecap="round" stroke-linejoin="round"/>
</svg>
