<svg width="10" height="11" viewBox="0 0 10 11" fill="none" xmlns="http://www.w3.org/2000/svg">
<path d="M0.325763 9.4594C0.138556 9.65811 0.147876 9.97095 0.346579 10.1582C0.545283 10.3454 0.858124 10.336 1.04533 10.1373L0.325763 9.4594ZM9.18449 1.28721C9.17636 1.01433 8.94856 0.799705 8.67568 0.807835L4.22885 0.940311C3.95597 0.94844 3.74135 1.17624 3.74948 1.44912C3.75761 1.722 3.98541 1.93662 4.25829 1.92849L8.21103 1.81074L8.32878 5.76348C8.33691 6.03636 8.56471 6.25098 8.83759 6.24285C9.11047 6.23472 9.3251 6.00692 9.31697 5.73404L9.18449 1.28721ZM1.04533 10.1373L9.05018 1.64089L8.33061 0.962959L0.325763 9.4594L1.04533 10.1373Z" fill="#EC3737"/>
</svg>
