<svg width="15" height="15" viewBox="0 0 15 15" fill="none" xmlns="http://www.w3.org/2000/svg">
<path d="M12.0304 6.59229C12.1586 6.42974 12.267 6.25188 12.353 6.06237C12.5043 5.72872 12.5826 5.36664 12.5824 5.00038V4.9998C12.5825 4.70687 12.5325 4.41836 12.4366 4.14602L12.0304 6.59229ZM12.0304 6.59229C12.3002 5.8546 12.4385 5.07404 12.4378 4.28617L12.0304 6.59229ZM1.10737 14C1.29792 13.1231 1.73683 12.3113 2.38185 11.6668C3.26676 10.7826 4.46712 10.2857 5.71892 10.2857C6.97071 10.2857 8.17107 10.7826 9.05598 11.6668C9.701 12.3113 10.1399 13.1231 10.3305 14H1.10737ZM5.71892 7.57143C3.90066 7.57143 2.42973 6.10052 2.42973 4.28571C2.42973 2.47091 3.90066 1 5.71892 1C7.53717 1 9.0081 2.47091 9.0081 4.28571C9.0081 6.10052 7.53717 7.57143 5.71892 7.57143Z" stroke="#F94D9C" stroke-width="2"/>
</svg>
