<svg width="18" height="14" viewBox="0 0 18 14" fill="none" xmlns="http://www.w3.org/2000/svg">
<path d="M6.8159 8.44432C6.51403 8.03103 6.34375 7.53073 6.34375 6.99418C6.34375 5.55853 7.58216 4.39844 9.11472 4.39844C10.6473 4.39844 11.8857 5.55853 11.8857 6.99418C11.8857 8.42982 10.6473 9.58994 9.11472 9.58994" stroke="#F82083" stroke-opacity="0.8" stroke-width="2" stroke-linecap="round" stroke-linejoin="round"/>
<path d="M13.4163 2.34139C12.1082 1.4713 10.6376 1 9.11279 1C6.38054 1 3.83402 2.50816 2.06152 5.11842C1.36491 6.14079 1.36491 7.85922 2.06152 8.88158C3.83402 11.4918 6.38054 13 9.11279 13C11.8451 13 14.3916 11.4918 16.1641 8.88158C16.8607 7.85922 16.8607 6.14079 16.1641 5.11842" stroke="#F82083" stroke-opacity="0.8" stroke-width="2" stroke-linecap="round" stroke-linejoin="round"/>
</svg>
