<svg width="10" height="7" viewBox="0 0 10 7" fill="none" xmlns="http://www.w3.org/2000/svg">
<path d="M7.77778 2.625V0.583333C7.77778 0.428624 7.71925 0.280251 7.61506 0.170854C7.51087 0.0614583 7.36957 0 7.22222 0H0.555556C0.408213 0 0.266905 0.0614583 0.162718 0.170854C0.0585316 0.280251 0 0.428624 0 0.583333V6.41667C0 6.57138 0.0585316 6.71975 0.162718 6.82915C0.266905 6.93854 0.408213 7 0.555556 7H7.22222C7.36957 7 7.51087 6.93854 7.61506 6.82915C7.71925 6.71975 7.77778 6.57138 7.77778 6.41667V4.375L10 6.70833V0.291667L7.77778 2.625Z" fill="#F94D9C"/>
</svg>
