<svg width="20" height="20" viewBox="0 0 20 20" fill="none" xmlns="http://www.w3.org/2000/svg">
<path d="M9.11347 17.9934L9.11236 17.9923C6.52275 15.4329 4.43419 13.3642 2.98377 11.4301C1.54369 9.50984 0.8 7.80773 0.8 5.99455C0.8 3.00328 2.92437 0.8 5.5 0.8C6.97142 0.8 8.41808 1.55124 9.37148 2.76197L10 3.56013L10.6285 2.76197C11.5819 1.55124 13.0286 0.8 14.5 0.8C17.0756 0.8 19.2 3.00328 19.2 5.99455C19.2 7.80773 18.4563 9.50984 17.0162 11.4301C15.5658 13.3642 13.4773 15.4329 10.8876 17.9923L10.8865 17.9934L10 18.873L9.11347 17.9934Z" stroke="#EC5F70" stroke-width="1.6"/>
</svg>
