<svg width="25" height="26" viewBox="0 0 25 26" fill="none" xmlns="http://www.w3.org/2000/svg">
<path d="M9.17708 2.62891L5.40625 6.41016M15.8229 2.62891L19.5937 6.41016" stroke="#15DB1D" stroke-width="1.5" stroke-miterlimit="10" stroke-linecap="round" stroke-linejoin="round"/>
<path d="M2.08594 8.72396C2.08594 6.79687 3.11719 6.64062 4.39844 6.64062H20.6068C21.888 6.64062 22.9193 6.79687 22.9193 8.72396C22.9193 10.9635 21.888 10.8073 20.6068 10.8073H4.39844C3.11719 10.8073 2.08594 10.9635 2.08594 8.72396Z" stroke="#15DB1D" stroke-width="1.5"/>
<path d="M10.1693 15.1315V18.8294M14.9609 15.1315V18.8294M3.64844 10.9648L5.11719 19.9648C5.45052 21.9857 6.2526 23.4648 9.23177 23.4648H15.513C18.7526 23.4648 19.2318 22.0482 19.6068 20.0898L21.3568 10.9648" stroke="#15DB1D" stroke-width="1.5" stroke-linecap="round"/>
</svg>
