<svg width="16" height="9" viewBox="0 0 16 9" fill="none" xmlns="http://www.w3.org/2000/svg">
<path d="M9 7C9 6.44772 8.55229 6 8 6C7.44772 6 7 6.44771 7 7L9 7ZM7.29289 8.20711C7.68342 8.59763 8.31658 8.59763 8.70711 8.20711L15.0711 1.84315C15.4616 1.45263 15.4616 0.819461 15.0711 0.428936C14.6805 0.0384117 14.0474 0.0384113 13.6569 0.428936L8 6.08579L2.34315 0.428929C1.95263 0.0384051 1.31946 0.0384047 0.928936 0.428929C0.538412 0.819453 0.538411 1.45262 0.928935 1.84314L7.29289 8.20711ZM7 7L7 7.5L9 7.5L9 7L7 7Z" fill="#D04E62"/>
</svg>
