<svg width="33" height="32" viewBox="0 0 33 32" fill="none" xmlns="http://www.w3.org/2000/svg">
<path d="M21.3307 18.6667H20.2774L19.9041 18.3067C21.2559 16.7387 21.9989 14.7369 21.9974 12.6667C21.9974 10.9526 21.4891 9.27696 20.5368 7.85173C19.5845 6.4265 18.2309 5.31567 16.6473 4.65971C15.0637 4.00376 13.3211 3.83213 11.6399 4.16653C9.95878 4.50094 8.41453 5.32636 7.20247 6.53841C5.99042 7.75047 5.165 9.29472 4.83059 10.9759C4.49619 12.6571 4.66782 14.3996 5.32378 15.9833C5.97974 17.5669 7.09057 18.9204 8.51579 19.8727C9.94102 20.825 11.6166 21.3333 13.3307 21.3333C15.4774 21.3333 17.4507 20.5467 18.9707 19.24L19.3307 19.6133V20.6667L25.9974 27.32L27.9841 25.3333L21.3307 18.6667ZM13.3307 18.6667C10.0107 18.6667 7.33073 15.9867 7.33073 12.6667C7.33073 9.34667 10.0107 6.66667 13.3307 6.66667C16.6507 6.66667 19.3307 9.34667 19.3307 12.6667C19.3307 15.9867 16.6507 18.6667 13.3307 18.6667Z" fill="black" fill-opacity="0.45"/>
</svg>
