<svg width="17" height="16" viewBox="0 0 17 16" fill="none" xmlns="http://www.w3.org/2000/svg">
<g clip-path="url(#clip0_21395_141)">
<path d="M7.75293 2.11948C8.1902 1.75184 8.90632 1.75184 9.34993 2.11948L10.3512 2.9669C10.5414 3.12891 10.8962 3.25976 11.1497 3.25976L12.2271 3.25976C12.8988 3.25976 13.4502 3.80187 13.4502 4.46236L13.4502 5.52165C13.4502 5.76466 13.5833 6.11983 13.748 6.30676L14.6099 7.29128C14.9838 7.72122 14.9838 8.42533 14.6099 8.86151L13.748 9.84602C13.5833 10.033 13.4502 10.3819 13.4502 10.6311L13.4502 11.6904C13.4502 12.3509 12.8988 12.893 12.2271 12.893L11.1497 12.893C10.9026 12.893 10.5414 13.0239 10.3512 13.1859L9.34993 14.0333C8.91266 14.4009 8.19654 14.4009 7.75293 14.0333L6.75163 13.1859C6.56151 13.0239 6.20662 12.893 5.95313 12.893L4.85677 12.893C4.18501 12.893 3.63367 12.3509 3.63367 11.6904L3.63367 10.6249C3.63367 10.3819 3.50058 10.033 3.34215 9.84602L2.48661 8.85528C2.11905 8.42533 2.11905 7.72745 2.48661 7.29751L3.34215 6.30676C3.50058 6.11983 3.63367 5.77089 3.63367 5.52788L3.63367 4.45613C3.63367 3.79564 4.18501 3.25353 4.85677 3.25353L5.95313 3.25353C6.20028 3.25353 6.56151 3.12268 6.75163 2.96067L7.75293 2.11948Z" fill="#31E859" stroke="#31E859" stroke-width="1.52096" stroke-linecap="round" stroke-linejoin="round"/>
<path d="M6.25 8.07042L7.77729 9.57834L10.8382 6.5625" stroke="white" stroke-width="1.52096" stroke-linecap="round" stroke-linejoin="round"/>
</g>
<defs>
<clipPath id="clip0_21395_141">
<rect width="15.2096" height="14.9546" fill="white" transform="translate(0.9375 0.59375)"/>
</clipPath>
</defs>
</svg>
