<svg width="43" height="42" viewBox="0 0 43 42" fill="none" xmlns="http://www.w3.org/2000/svg">
<g filter="url(#filter0_d_13694_22083)">
<ellipse cx="19.5" cy="19" rx="15" ry="15" transform="rotate(90 19.5 19)" fill="white"/>
</g>
<path d="M18.5 15.6797C18.5 16.232 18.9477 16.6797 19.5 16.6797C20.0523 16.6797 20.5 16.232 20.5 15.6797L18.5 15.6797ZM20.2071 14.4731C19.8166 14.0825 19.1834 14.0825 18.7929 14.4731L12.4289 20.837C12.0384 21.2276 12.0384 21.8607 12.4289 22.2512C12.8195 22.6418 13.4526 22.6418 13.8431 22.2512L19.5 16.5944L25.1569 22.2512C25.5474 22.6418 26.1805 22.6418 26.5711 22.2512C26.9616 21.8607 26.9616 21.2276 26.5711 20.837L20.2071 14.4731ZM20.5 15.6797L20.5 15.1802L18.5 15.1802L18.5 15.6797L20.5 15.6797Z" fill="#EC5F70"/>
<defs>
<filter id="filter0_d_13694_22083" x="0.5" y="0" width="42" height="42" filterUnits="userSpaceOnUse" color-interpolation-filters="sRGB">
<feFlood flood-opacity="0" result="BackgroundImageFix"/>
<feColorMatrix in="SourceAlpha" type="matrix" values="0 0 0 0 0 0 0 0 0 0 0 0 0 0 0 0 0 0 127 0" result="hardAlpha"/>
<feMorphology radius="1" operator="erode" in="SourceAlpha" result="effect1_dropShadow_13694_22083"/>
<feOffset dx="2" dy="2"/>
<feGaussianBlur stdDeviation="3.5"/>
<feComposite in2="hardAlpha" operator="out"/>
<feColorMatrix type="matrix" values="0 0 0 0 0 0 0 0 0 0 0 0 0 0 0 0 0 0 0.25 0"/>
<feBlend mode="normal" in2="BackgroundImageFix" result="effect1_dropShadow_13694_22083"/>
<feBlend mode="normal" in="SourceGraphic" in2="effect1_dropShadow_13694_22083" result="shape"/>
</filter>
</defs>
</svg>
