<svg width="28" height="30" viewBox="0 0 28 30" fill="none" xmlns="http://www.w3.org/2000/svg">
<rect width="28" height="30" rx="5" fill="#F5334A" fill-opacity="0.1"/>
<path opacity="0.5" d="M16.8747 14.5119C17.6613 14.6585 18.308 15.0519 18.8147 15.6919C19.3213 16.3319 19.5747 17.0652 19.5747 17.8919C19.5747 18.6385 19.388 19.2985 19.0147 19.8719C18.6547 20.4319 18.128 20.8719 17.4347 21.1919C16.7413 21.5119 15.9213 21.6719 14.9747 21.6719H8.95465V7.71187H14.7147C15.6613 7.71187 16.4747 7.86521 17.1547 8.17187C17.848 8.47854 18.368 8.90521 18.7147 9.45187C19.0747 9.99854 19.2547 10.6185 19.2547 11.3119C19.2547 12.1252 19.0347 12.8052 18.5947 13.3519C18.168 13.8985 17.5947 14.2852 16.8747 14.5119ZM11.7547 13.4719H14.3147C14.9813 13.4719 15.4947 13.3252 15.8547 13.0319C16.2147 12.7252 16.3947 12.2919 16.3947 11.7319C16.3947 11.1719 16.2147 10.7385 15.8547 10.4319C15.4947 10.1252 14.9813 9.97187 14.3147 9.97187H11.7547V13.4719ZM14.5747 19.3919C15.2547 19.3919 15.7813 19.2319 16.1547 18.9119C16.5413 18.5919 16.7347 18.1385 16.7347 17.5519C16.7347 16.9519 16.5347 16.4852 16.1347 16.1519C15.7347 15.8052 15.1947 15.6319 14.5147 15.6319H11.7547V19.3919H14.5747Z" fill="#F5334A"/>
</svg>
