<svg width="35" height="36" viewBox="0 0 35 36" fill="none" xmlns="http://www.w3.org/2000/svg">
<path d="M17.5 2.85156C14.5796 2.85156 11.7249 3.71755 9.29666 5.34002C6.86847 6.96249 4.97592 9.26856 3.85835 11.9666C2.74077 14.6647 2.44836 17.6336 3.0181 20.4978C3.58783 23.3621 4.99412 25.9931 7.05913 28.0581C9.12414 30.1231 11.7551 31.5294 14.6194 32.0991C17.4836 32.6688 20.4525 32.3764 23.1506 31.2588C25.8486 30.1413 28.1547 28.2487 29.7772 25.8205C31.3996 23.3923 32.2656 20.5376 32.2656 17.6172C32.2613 13.7024 30.7042 9.94926 27.9361 7.18111C25.1679 4.41296 21.4148 2.8559 17.5 2.85156ZM17.5 29.1016C15.2286 29.1016 13.0082 28.428 11.1196 27.1661C9.23103 25.9042 7.75905 24.1106 6.88983 22.0121C6.0206 19.9136 5.79317 17.6044 6.2363 15.3767C6.67943 13.1489 7.77321 11.1026 9.37933 9.49651C10.9854 7.89039 13.0318 6.79661 15.2595 6.35348C17.4873 5.91035 19.7964 6.13778 21.8949 7.00701C23.9934 7.87623 25.787 9.34821 27.0489 11.2368C28.3108 13.1254 28.9844 15.3458 28.9844 17.6172C28.9811 20.662 27.7701 23.5812 25.6171 25.7343C23.4641 27.8873 20.5449 29.0983 17.5 29.1016ZM26.7969 17.6172C26.7969 18.0523 26.624 18.4696 26.3164 18.7773C26.0087 19.085 25.5914 19.2578 25.1563 19.2578H17.5C17.0649 19.2578 16.6476 19.085 16.3399 18.7773C16.0322 18.4696 15.8594 18.0523 15.8594 17.6172V9.96094C15.8594 9.52582 16.0322 9.10852 16.3399 8.80084C16.6476 8.49316 17.0649 8.32031 17.5 8.32031C17.9351 8.32031 18.3524 8.49316 18.6601 8.80084C18.9678 9.10852 19.1406 9.52582 19.1406 9.96094V15.9766H25.1563C25.5914 15.9766 26.0087 16.1494 26.3164 16.4571C26.624 16.7648 26.7969 17.1821 26.7969 17.6172Z" fill="#EC5F70"/>
</svg>
