<svg width="35" height="36" viewBox="0 0 35 36" fill="none" xmlns="http://www.w3.org/2000/svg">
<path d="M21.147 6.45182H21.1543H21.147ZM21.147 6.45182L17.5012 15.2018L24.7929 19.4281L13.8554 29.7852L17.5012 21.0352L10.2095 16.806L21.147 6.45182ZM21.147 3.53516C20.3991 3.53853 19.6803 3.82573 19.136 4.3387L8.20286 14.6856C7.8733 14.9978 7.62124 15.3827 7.46679 15.8096C7.31234 16.2364 7.25977 16.6935 7.31328 17.1443C7.41828 18.0572 7.95057 18.8681 8.74536 19.3289L13.8233 22.2762L11.1604 28.6652C10.9766 29.1086 10.9049 29.5905 10.9516 30.0682C10.9984 30.546 11.1621 31.0048 11.4284 31.4042C11.6947 31.8036 12.0554 32.1312 12.4784 32.358C12.9015 32.5849 13.3739 32.7039 13.8539 32.7047C14.5802 32.7047 15.302 32.4335 15.8591 31.9056L26.7966 21.547C27.1263 21.2352 27.3784 20.8506 27.5328 20.4239C27.6873 19.9972 27.7398 19.5403 27.6862 19.0897C27.6338 18.6393 27.4771 18.2073 27.2285 17.8281C26.9799 17.4488 26.6463 17.1328 26.2541 16.9052L21.1762 13.9622L23.7852 7.70162C23.9961 7.25684 24.091 6.76591 24.0611 6.27456C24.0312 5.78321 23.8774 5.30742 23.6141 4.89152C23.3507 4.47562 22.9864 4.13314 22.555 3.89598C22.1237 3.65881 21.6393 3.53469 21.147 3.53516Z" fill="#EC5F70"/>
</svg>
