<svg width="25" height="23" viewBox="0 0 25 23" fill="none" xmlns="http://www.w3.org/2000/svg">
<path d="M21.7732 11.4561C21.7732 11.2181 21.8728 10.9897 22.0501 10.8214C22.2275 10.653 22.468 10.5584 22.7188 10.5584C22.9696 10.5584 23.2102 10.653 23.3875 10.8214C23.5648 10.9897 23.6645 11.2181 23.6645 11.4561V21.331C23.6645 21.5691 23.5648 21.7974 23.3875 21.9658C23.2102 22.1341 22.9696 22.2287 22.7188 22.2287H1.91441C1.6636 22.2287 1.42307 22.1341 1.24573 21.9658C1.06838 21.7974 0.96875 21.5691 0.96875 21.331V1.58131C0.96875 1.34322 1.06838 1.11488 1.24573 0.946528C1.42307 0.778174 1.6636 0.683594 1.91441 0.683594H12.3166C12.5674 0.683594 12.8079 0.778174 12.9853 0.946528C13.1626 1.11488 13.2623 1.34322 13.2623 1.58131C13.2623 1.81939 13.1626 2.04773 12.9853 2.21608C12.8079 2.38444 12.5674 2.47902 12.3166 2.47902H2.86006V20.4333H21.7732V11.4561Z" fill="#6764FF" fill-opacity="0.6"/>
<path d="M11.0676 12.6365L12.6279 12.4247L22.2131 3.32725C22.3034 3.24443 22.3755 3.14538 22.425 3.03585C22.4746 2.92633 22.5007 2.80853 22.5018 2.68933C22.5028 2.57013 22.4789 2.45192 22.4314 2.3416C22.3838 2.23127 22.3136 2.13104 22.2248 2.04675C22.136 1.96246 22.0304 1.89581 21.9142 1.85067C21.798 1.80553 21.6735 1.78282 21.5479 1.78385C21.4224 1.78489 21.2983 1.80965 21.1829 1.8567C21.0675 1.90375 20.9632 1.97214 20.8759 2.05788L11.2889 11.1553L11.0657 12.6365H11.0676ZM23.5502 0.786719C23.8139 1.03682 24.023 1.33379 24.1657 1.66065C24.3084 1.98751 24.3818 2.33785 24.3818 2.69166C24.3818 3.04548 24.3084 3.39582 24.1657 3.72268C24.023 4.04954 23.8139 4.34651 23.5502 4.59661L13.7438 13.9059C13.5992 14.0437 13.4114 14.1331 13.2086 14.1608L10.0879 14.5846C9.94246 14.6044 9.79416 14.5918 9.65476 14.5477C9.51535 14.5037 9.38868 14.4294 9.28479 14.3307C9.1809 14.2321 9.10264 14.1119 9.05623 13.9795C9.00982 13.8472 8.99653 13.7064 9.01742 13.5683L9.46377 10.6059C9.49242 10.4136 9.58599 10.2353 9.73044 10.0978L19.5388 0.788514C20.0708 0.283629 20.7922 0 21.5445 0C22.2968 0 23.0182 0.283629 23.5502 0.788514V0.786719Z" fill="#6764FF" fill-opacity="0.6"/>
</svg>
