<svg width="60" height="60" viewBox="0 0 60 60" fill="none" xmlns="http://www.w3.org/2000/svg">
<circle cx="30" cy="30" r="30" fill="#EC5F70"/>
<path d="M32.4576 28H34.4248V28.757C35.0913 28.3042 35.8663 28.044 36.667 28.0041C37.4677 27.9641 38.264 28.146 38.9709 28.5303C39.6779 28.9147 40.2689 29.4869 40.6808 30.1861C41.0928 30.8852 41.3103 31.685 41.31 32.5V38H39.3428V32.5C39.3428 31.07 38.1871 30 36.8838 30C35.5805 30 34.4248 31.07 34.4248 32.5V38H32.4576V28ZM30.4904 22V24H22.6215V29H30.4904V31H22.6215V36H30.4904V38H20.6543V22H30.4904Z" fill="white"/>
</svg>
