<svg width="61" height="60" viewBox="0 0 61 60" fill="none" xmlns="http://www.w3.org/2000/svg">
<circle cx="30.3125" cy="30" r="30" fill="#EC5F70"/>
<path d="M39.0862 21H33.399C33.0973 21 32.808 21.1054 32.5947 21.2929C32.3814 21.4804 32.2616 21.7348 32.2616 22C32.2616 22.2652 32.3814 22.5196 32.5947 22.7071C32.808 22.8946 33.0973 23 33.399 23H35.1052V29H29.4748C30.2274 28.1395 30.6374 27.0854 30.6418 26C30.6418 24.8994 30.2287 23.8295 29.4665 22.9563C28.7044 22.0832 27.6359 21.4555 26.4266 21.1706C25.2174 20.8857 23.935 20.9596 22.7784 21.3808C21.6218 21.8019 20.6555 22.5469 20.0295 23.5C19.9494 23.6138 19.8961 23.7407 19.8728 23.8729C19.8495 24.0052 19.8566 24.1403 19.8937 24.2701C19.9309 24.3999 19.9973 24.5218 20.089 24.6287C20.1808 24.7355 20.296 24.8251 20.4278 24.892C20.5597 24.959 20.7055 25.002 20.8566 25.0185C21.0077 25.035 21.161 25.0247 21.3075 24.9881C21.4539 24.9515 21.5906 24.8895 21.7093 24.8057C21.8279 24.7218 21.9263 24.6179 21.9984 24.5C22.2979 24.044 22.7286 23.6653 23.2473 23.402C23.766 23.1387 24.3544 23 24.9533 23C25.5523 23 26.1407 23.1385 26.6594 23.4018C27.1781 23.665 27.6089 24.0436 27.9085 24.4996C28.208 24.9556 28.3658 25.4729 28.3659 25.9994C28.366 26.526 28.2085 27.0433 27.9091 27.4994C27.6098 27.9555 27.1792 28.3343 26.6605 28.5977C26.1419 28.8611 25.5536 28.9998 24.9546 29C24.653 29 24.3637 29.1054 24.1503 29.2929C23.937 29.4804 23.8172 29.7348 23.8172 30C23.8172 30.2652 23.937 30.5196 24.1503 30.7071C24.3637 30.8946 24.653 31 24.9546 31C25.5536 31.0002 26.1419 31.1389 26.6605 31.4023C27.1792 31.6657 27.6098 32.0445 27.9091 32.5006C28.2085 32.9567 28.366 33.474 28.3659 34.0006C28.3658 34.5271 28.208 35.0444 27.9085 35.5004C27.6089 35.9564 27.1781 36.335 26.6594 36.5982C26.1407 36.8615 25.5523 37 24.9533 37C24.3544 37 23.766 36.8613 23.2473 36.598C22.7286 36.3347 22.2979 35.956 21.9984 35.5C21.8428 35.2789 21.5954 35.1198 21.3086 35.0563C21.0218 34.9929 20.7182 35.0302 20.4622 35.1602C20.2061 35.2903 20.0177 35.5029 19.9369 35.753C19.8562 36.0031 19.8894 36.2711 20.0295 36.5C20.6555 37.4531 21.6218 38.1981 22.7784 38.6192C23.935 39.0404 25.2174 39.1143 26.4266 38.8294C27.6359 38.5445 28.7044 37.9168 29.4665 37.0437C30.2287 36.1705 30.6418 35.1006 30.6418 34C30.6374 32.9146 30.2274 31.8605 29.4748 31H35.1052V38C35.1052 38.2652 35.225 38.5196 35.4383 38.7071C35.6516 38.8946 35.9409 39 36.2426 39C36.5443 39 36.8336 38.8946 37.0469 38.7071C37.2602 38.5196 37.38 38.2652 37.38 38V23H39.0862C39.3879 23 39.6772 22.8946 39.8905 22.7071C40.1038 22.5196 40.2236 22.2652 40.2236 22C40.2236 21.7348 40.1038 21.4804 39.8905 21.2929C39.6772 21.1054 39.3879 21 39.0862 21Z" fill="white"/>
</svg>
