<svg width="45" height="28" viewBox="0 0 45 28" fill="none" xmlns="http://www.w3.org/2000/svg">
<path d="M11.1258 0.355999C12.5978 0.355999 13.9178 0.611999 15.0858 1.124C16.2698 1.62 17.2058 2.364 17.8938 3.356C18.5818 4.348 18.9258 5.532 18.9258 6.908V7.316H16.4538V6.956C16.4538 5.916 16.1898 5.06 15.6618 4.388C15.1498 3.7 14.4858 3.204 13.6698 2.9C12.8538 2.58 12.0058 2.42 11.1258 2.42C9.66978 2.42 8.42178 2.756 7.38178 3.428C6.35778 4.1 5.82178 5.204 5.77378 6.74H8.72578V8.852H5.79778V24.5H3.27778V8.852H0.349781V6.74H3.27778C3.30978 5.332 3.66978 4.148 4.35778 3.188C5.06178 2.228 5.99778 1.516 7.16578 1.052C8.33378 0.587999 9.65378 0.355999 11.1258 0.355999ZM15.1525 13.148C14.4805 13.148 13.9365 13.284 13.5205 13.556C13.1045 13.828 12.8965 14.26 12.8965 14.852C12.8965 15.268 13.0165 15.62 13.2565 15.908C13.4965 16.196 13.8245 16.412 14.2405 16.556C14.6885 16.476 15.1205 16.436 15.5365 16.436C17.1365 16.436 18.3845 16.828 19.2805 17.612C20.1925 18.38 20.7365 19.356 20.9125 20.54H18.5125C18.3685 19.98 18.0325 19.492 17.5045 19.076C16.9925 18.66 16.3205 18.452 15.4885 18.452C14.5125 18.452 13.7365 18.764 13.1605 19.388C12.5845 19.996 12.2965 20.772 12.2965 21.716C12.2965 22.676 12.5765 23.46 13.1365 24.068C13.7125 24.66 14.4965 24.956 15.4885 24.956C16.2885 24.956 16.9525 24.756 17.4805 24.356C18.0085 23.956 18.3525 23.476 18.5125 22.916H20.9125C20.8005 23.684 20.5125 24.38 20.0485 25.004C19.5845 25.628 18.9605 26.124 18.1765 26.492C17.4085 26.86 16.5125 27.044 15.4885 27.044C14.3205 27.044 13.3045 26.812 12.4405 26.348C11.5925 25.884 10.9445 25.252 10.4965 24.452C10.0485 23.636 9.82453 22.708 9.82453 21.668C9.82453 20.692 10.0325 19.828 10.4485 19.076C10.8805 18.308 11.4885 17.7 12.2725 17.252C11.6965 16.964 11.2405 16.58 10.9045 16.1C10.5685 15.62 10.4005 15.044 10.4005 14.372C10.4005 13.396 10.7525 12.644 11.4565 12.116C12.1605 11.588 13.1045 11.324 14.2885 11.324H17.0725V8.852H7.56853V6.74H22.7605V8.852H19.4725V13.148H15.1525ZM23.5338 3.02C23.5338 3.468 23.3818 3.844 23.0778 4.148C22.7738 4.452 22.3978 4.604 21.9498 4.604C21.5018 4.604 21.1178 4.452 20.7978 4.148C20.4938 3.844 20.3418 3.468 20.3418 3.02C20.3418 2.572 20.4938 2.196 20.7978 1.892C21.1178 1.588 21.5018 1.436 21.9498 1.436C22.3978 1.436 22.7738 1.588 23.0778 1.892C23.3818 2.196 23.5338 2.572 23.5338 3.02ZM30.391 13.436C29.207 13.436 28.231 13.748 27.463 14.372C26.711 14.996 26.335 15.868 26.335 16.988C26.335 18.012 26.639 18.828 27.247 19.436C27.855 20.044 28.671 20.348 29.695 20.348C30.511 20.348 31.223 20.092 31.831 19.58C32.439 19.068 32.743 18.34 32.743 17.396H35.071V25.004H32.599V20.708C32.247 21.22 31.751 21.628 31.111 21.932C30.487 22.22 29.783 22.364 28.999 22.364C28.007 22.364 27.111 22.156 26.311 21.74C25.527 21.308 24.903 20.684 24.439 19.868C23.991 19.052 23.767 18.068 23.767 16.916C23.767 15.7 24.047 14.668 24.607 13.82C25.167 12.972 25.927 12.34 26.887 11.924C27.847 11.492 28.935 11.276 30.151 11.276H31.639V8.852H21.631V6.74H37.423L37.399 8.852H34.159V13.436H30.391ZM44.6555 6.74V8.852H41.7275V24.5H39.2075V8.852H36.2795V6.74H39.2795V5.756C39.2795 4.828 39.1035 4.052 38.7515 3.428C38.3995 2.788 37.7755 2.468 36.8795 2.468C35.9835 2.468 35.3515 2.788 34.9835 3.428C34.6155 4.052 34.4315 4.828 34.4315 5.756V7.316H31.9835V5.876C31.9835 4.196 32.3755 2.86 33.1595 1.868C33.9435 0.859999 35.1835 0.355999 36.8795 0.355999C38.6075 0.355999 39.8475 0.851999 40.5995 1.844C41.3515 2.836 41.7275 4.18 41.7275 5.876V6.74H44.6555Z" fill="#EC5F70"/>
</svg>
