<svg width="50" height="50" viewBox="0 0 50 50" fill="none" xmlns="http://www.w3.org/2000/svg">
<circle cx="25" cy="25" r="25" fill="#6764FF" fill-opacity="0.6"/>
<path d="M20 23.3327V21.666C20 18.8993 20.8333 16.666 25 16.666C29.1667 16.666 30 18.8993 30 21.666V23.3327M25 29.3327C25.1313 29.3327 25.2614 29.3068 25.3827 29.2566C25.504 29.2063 25.6142 29.1326 25.7071 29.0398C25.8 28.9469 25.8736 28.8367 25.9239 28.7154C25.9741 28.594 26 28.464 26 28.3327C26 28.2014 25.9741 28.0713 25.9239 27.95C25.8736 27.8287 25.8 27.7184 25.7071 27.6256C25.6142 27.5327 25.504 27.4591 25.3827 27.4088C25.2614 27.3585 25.1313 27.3327 25 27.3327C24.7348 27.3327 24.4804 27.438 24.2929 27.6256C24.1054 27.8131 24 28.0675 24 28.3327C24 28.5979 24.1054 28.8523 24.2929 29.0398C24.4804 29.2273 24.7348 29.3327 25 29.3327Z" stroke="white" stroke-width="1.5" stroke-linecap="round" stroke-linejoin="round"/>
<path d="M29.1641 33.334H20.8307C17.4974 33.334 16.6641 32.5007 16.6641 29.1673V27.5007C16.6641 24.1673 17.4974 23.334 20.8307 23.334H29.1641C32.4974 23.334 33.3307 24.1673 33.3307 27.5007V29.1673C33.3307 32.5007 32.4974 33.334 29.1641 33.334Z" stroke="white" stroke-width="1.5" stroke-linecap="round" stroke-linejoin="round"/>
<path d="M25.0026 41.6673C34.2076 41.6673 41.6693 34.2057 41.6693 25.0007C41.6693 15.7957 34.2076 8.33398 25.0026 8.33398C15.7976 8.33398 8.33594 15.7957 8.33594 25.0007C8.33594 34.2057 15.7976 41.6673 25.0026 41.6673Z" stroke="white" stroke-width="1.5" stroke-linecap="round" stroke-linejoin="round"/>
</svg>
