<svg width="31" height="30" viewBox="0 0 31 30" fill="none" xmlns="http://www.w3.org/2000/svg">
<path d="M14.3412 26.8358C10.7523 26.8358 7.16339 26.3227 3.75934 25.2963C2.46549 24.8941 1.4797 24.0758 1.04842 23.0078C0.60173 21.9398 0.755759 20.7609 1.4643 19.7068L3.23564 17.0577C3.60531 16.5029 3.94417 15.3933 3.94417 14.7415V10.7331C3.94417 5.57361 8.61127 1.37109 14.3412 1.37109C20.0711 1.37109 24.7382 5.57361 24.7382 10.7331V14.7415C24.7382 15.3795 25.0771 16.5029 25.4468 17.0716L27.2027 19.7068C27.865 20.7054 27.9883 21.9121 27.5416 23.0078C27.0949 24.1035 26.1245 24.9357 24.9077 25.2963C21.519 26.3227 17.9301 26.8358 14.3412 26.8358ZM14.3412 3.45155C9.88972 3.45155 6.25462 6.71093 6.25462 10.7331V14.7415C6.25462 15.7539 5.79253 17.2519 5.22262 18.1257L3.45128 20.7748C3.11241 21.288 3.02 21.8289 3.22023 22.2866C3.40507 22.7581 3.86716 23.1188 4.49868 23.3129C10.9371 25.2547 17.7607 25.2547 24.1991 23.3129C24.7536 23.1465 25.1849 22.772 25.3852 22.2727C25.5854 21.7734 25.5392 21.2325 25.2311 20.7748L23.4598 18.1257C22.8745 17.2241 22.4278 15.7401 22.4278 14.7276V10.7331C22.4278 6.71093 18.8081 3.45155 14.3412 3.45155Z" fill="#D04E62"/>
<path d="M17.2054 3.82804C17.0976 3.82804 16.9898 3.81417 16.882 3.78643C16.4353 3.67547 16.004 3.59225 15.5881 3.53677C14.2789 3.38421 13.0158 3.46743 11.8298 3.78643C11.3985 3.91126 10.9365 3.78643 10.6438 3.49516C10.3512 3.2039 10.2588 2.78781 10.4282 2.41333C11.0597 0.95701 12.6 0 14.3559 0C16.1118 0 17.6521 0.94314 18.2837 2.41333C18.4377 2.78781 18.3607 3.2039 18.068 3.49516C17.837 3.71708 17.5135 3.82804 17.2054 3.82804Z" fill="#D04E62"/>
<path d="M14.3425 30.0019C12.8176 30.0019 11.3389 29.4471 10.2607 28.4763C9.18252 27.5054 8.56641 26.1739 8.56641 24.8008H10.8769C10.8769 25.6191 11.2465 26.4235 11.8934 27.0061C12.5403 27.5886 13.4337 27.9215 14.3425 27.9215C16.2524 27.9215 17.8081 26.5206 17.8081 24.8008H20.1186C20.1186 27.6718 17.5309 30.0019 14.3425 30.0019Z" fill="#D04E62"/>
</svg>
