<svg width="104" height="43" viewBox="0 0 104 43" fill="none" xmlns="http://www.w3.org/2000/svg">
<rect x="0.0585938" width="103.853" height="43" rx="10" fill="#D04E62"/>
<path d="M62.7473 21.52C62.7473 19.2133 63.1607 17.4067 63.9873 16.1C64.8273 14.7933 66.214 14.14 68.1473 14.14C70.0807 14.14 71.4607 14.7933 72.2873 16.1C73.1273 17.4067 73.5473 19.2133 73.5473 21.52C73.5473 23.84 73.1273 25.66 72.2873 26.98C71.4607 28.3 70.0807 28.96 68.1473 28.96C66.214 28.96 64.8273 28.3 63.9873 26.98C63.1607 25.66 62.7473 23.84 62.7473 21.52ZM70.7873 21.52C70.7873 20.5333 70.7207 19.7067 70.5873 19.04C70.4673 18.36 70.214 17.8067 69.8273 17.38C69.454 16.9533 68.894 16.74 68.1473 16.74C67.4007 16.74 66.834 16.9533 66.4473 17.38C66.074 17.8067 65.8207 18.36 65.6873 19.04C65.5673 19.7067 65.5073 20.5333 65.5073 21.52C65.5073 22.5333 65.5673 23.3867 65.6873 24.08C65.8073 24.76 66.0607 25.3133 66.4473 25.74C66.834 26.1533 67.4007 26.36 68.1473 26.36C68.894 26.36 69.4607 26.1533 69.8473 25.74C70.234 25.3133 70.4873 24.76 70.6073 24.08C70.7273 23.3867 70.7873 22.5333 70.7873 21.52Z" fill="white"/>
<path d="M25.5461 20.0781H19.125" stroke="white" stroke-width="2" stroke-linecap="round" stroke-linejoin="round"/>
<path d="M13.7734 20.0771V15.0306C13.7734 12.8023 15.5392 11 17.7224 11H23.7368C25.92 11 27.6858 12.3872 27.6858 14.6155" stroke="white" stroke-width="2" stroke-linecap="round" stroke-linejoin="round"/>
<path d="M30.3399 21.2257C29.8048 21.75 29.5479 22.5583 29.762 23.3884C30.0295 24.4043 31.0141 25.0487 32.0415 25.0487H33.0367V26.6326C33.0367 29.0466 31.1211 31.0018 28.756 31.0018H18.0542C15.6891 31.0018 13.7734 29.0466 13.7734 26.6326V18.9864C13.7734 16.5724 15.6891 14.6172 18.0542 14.6172H28.756C31.1104 14.6172 33.0367 16.5833 33.0367 18.9864V20.5703H31.8809C31.2816 20.5703 30.7358 20.8106 30.3399 21.2257Z" stroke="white" stroke-width="2" stroke-linecap="round" stroke-linejoin="round"/>
<path d="M35.1766 21.6845V23.9346C35.1766 24.5463 34.6842 25.0488 34.0742 25.0488H32.0088C30.853 25.0488 29.7936 24.1859 29.6973 23.0062C29.6331 22.318 29.8898 21.6735 30.3393 21.2257C30.7352 20.8106 31.2811 20.5703 31.8804 20.5703H34.0742C34.6842 20.5703 35.1766 21.0728 35.1766 21.6845Z" stroke="white" stroke-width="2" stroke-linecap="round" stroke-linejoin="round"/>
</svg>
