<svg width="24" height="30" viewBox="0 0 24 30" fill="none" xmlns="http://www.w3.org/2000/svg">
<path d="M23.3925 19.7938C23.339 19.1606 23.0938 18.5589 22.6896 18.0687C22.2854 17.5784 21.7413 17.2231 21.13 17.05L14.4987 15.1562V13.7812C15.436 13.3162 16.225 12.599 16.7771 11.7102C17.3291 10.8214 17.6223 9.79628 17.6237 8.75C18.1392 8.67128 18.6094 8.41051 18.9492 8.01494C19.2889 7.61937 19.4757 7.11519 19.4757 6.59375C19.4757 6.07231 19.2889 5.56813 18.9492 5.17256C18.6094 4.77699 18.1392 4.51622 17.6237 4.4375V1.25H20.7487C20.9145 1.25 21.0735 1.18415 21.1907 1.06694C21.3079 0.949732 21.3738 0.79076 21.3738 0.625C21.3738 0.45924 21.3079 0.300269 21.1907 0.183058C21.0735 0.065848 20.9145 0 20.7487 0L3.24874 0C3.08298 0 2.92401 0.065848 2.8068 0.183058C2.68959 0.300269 2.62374 0.45924 2.62374 0.625C2.62374 0.79076 2.68959 0.949732 2.8068 1.06694C2.92401 1.18415 3.08298 1.25 3.24874 1.25H3.87374V3.125C3.87374 3.29076 3.93959 3.44973 4.0568 3.56694C4.17401 3.68415 4.33298 3.75 4.49874 3.75C4.6645 3.75 4.82347 3.68415 4.94068 3.56694C5.05789 3.44973 5.12374 3.29076 5.12374 3.125V1.25H6.37374V4.40625C5.83255 4.45659 5.32965 4.70717 4.96354 5.10891C4.59744 5.51064 4.39451 6.03459 4.39451 6.57812C4.39451 7.12166 4.59744 7.64561 4.96354 8.04734C5.32965 8.44908 5.83255 8.69966 6.37374 8.75C6.36934 9.80159 6.65981 10.8334 7.21218 11.7282C7.76455 12.623 8.55671 13.3451 9.49874 13.8125V15.1875L2.86124 17.0625C2.25107 17.2367 1.70838 17.5925 1.30535 18.0826C0.902311 18.5727 0.658031 19.1739 0.604991 19.8062C0.0237411 26.7812 0.123741 25 0.123741 27.5C0.123741 28.163 0.387133 28.7989 0.855974 29.2678C1.32482 29.7366 1.9607 30 2.62374 30H21.3738C22.0368 30 22.6727 29.7366 23.1415 29.2678C23.6104 28.7989 23.8738 28.163 23.8738 27.5C23.8738 25 23.98 26.875 23.3925 19.7938ZM22.1425 19.8937L22.5675 25H19.8112C20.2237 19.2125 20.9988 20 13.9862 20C14.1987 18.7188 13.9862 19.5187 14.6425 19.375C15.0237 19.2875 14.9737 19.2125 16.155 16.9438L20.7863 18.2687C21.1497 18.3715 21.4736 18.5816 21.7156 18.8716C21.9576 19.1615 22.1064 19.5178 22.1425 19.8937ZM5.16749 21.25H18.83L18.2925 28.75H5.70499L5.16749 21.25ZM11.5862 18.0187C11.6703 18.0927 11.7726 18.1427 11.8825 18.1636C11.9924 18.1845 12.106 18.1755 12.2112 18.1375C12.48 18.025 12.18 17.8687 12.955 18.4312L12.7175 20H11.28L11.0175 18.4312L11.5862 18.0187ZM14.93 16.575L14.305 17.825L13.3237 17.1187L14.0862 16.3312L14.93 16.575ZM17.6237 7.44375V5.68125C17.8047 5.74694 17.9611 5.86676 18.0716 6.02443C18.1821 6.18209 18.2414 6.36996 18.2414 6.5625C18.2414 6.75504 18.1821 6.94291 18.0716 7.10057C17.9611 7.25824 17.8047 7.37806 17.6237 7.44375ZM16.3737 1.25V4.375H7.62374V1.25H16.3737ZM6.37374 5.68125V7.44375C6.19276 7.37806 6.03639 7.25824 5.92588 7.10057C5.81538 6.94291 5.75609 6.75504 5.75609 6.5625C5.75609 6.36996 5.81538 6.18209 5.92588 6.02443C6.03639 5.86676 6.19276 5.74694 6.37374 5.68125ZM7.62374 8.75V5.625H16.3737V8.75C16.3737 9.91032 15.9128 11.0231 15.0923 11.8436C14.2719 12.6641 13.1591 13.125 11.9987 13.125C10.8384 13.125 9.72562 12.6641 8.90515 11.8436C8.08468 11.0231 7.62374 9.91032 7.62374 8.75ZM13.2487 14.2313V15.3687L11.9987 16.6562L10.7487 15.3687V14.2313C11.5708 14.425 12.4267 14.425 13.2487 14.2313ZM9.93624 16.3312L10.6987 17.1187L9.71749 17.825L9.09249 16.575L9.93624 16.3312ZM1.85499 19.8937C1.88748 19.5145 2.03463 19.1541 2.27689 18.8605C2.51916 18.5669 2.84505 18.3539 3.21124 18.25L7.84249 16.925C9.02999 19.2 8.98625 19.2687 9.35499 19.3562C10.0112 19.5187 9.79874 18.7312 10.0112 19.9812C3.03624 19.9812 3.76124 19.1625 4.18624 24.9813H1.42999L1.85499 19.8937ZM1.37374 27.5V26.25H4.27374L4.45499 28.75H2.62374C2.29222 28.75 1.97428 28.6183 1.73986 28.3839C1.50544 28.1495 1.37374 27.8315 1.37374 27.5ZM22.6238 27.5C22.6238 27.8315 22.4921 28.1495 22.2576 28.3839C22.0232 28.6183 21.7053 28.75 21.3738 28.75H19.5425L19.7237 26.25H22.6238V27.5Z" fill="white"/>
</svg>
