<svg width="23" height="21" viewBox="0 0 23 21" fill="none" xmlns="http://www.w3.org/2000/svg">
<path d="M12.9296 9.80859H6.92969H12.9296Z" fill="white"/>
<path d="M12.9296 9.80859H6.92969" stroke="#EC5F70" stroke-width="2" stroke-linecap="round" stroke-linejoin="round"/>
<path d="M1.92969 9.80992V5.18996C1.92969 3.14998 3.57967 1.5 5.61965 1.5H11.2396C13.2796 1.5 14.9295 2.76999 14.9295 4.80996" fill="white"/>
<path d="M1.92969 9.80992V5.18996C1.92969 3.14998 3.57967 1.5 5.61965 1.5H11.2396C13.2796 1.5 14.9295 2.76999 14.9295 4.80996" stroke="#EC5F70" stroke-width="2" stroke-linecap="round" stroke-linejoin="round"/>
<path d="M17.4095 10.8585C16.9095 11.3385 16.6695 12.0785 16.8695 12.8385C17.1195 13.7685 18.0395 14.3585 18.9995 14.3585H19.9295V15.8085C19.9295 18.0184 18.1395 19.8084 15.9295 19.8084H5.92964C3.71967 19.8084 1.92969 18.0184 1.92969 15.8085V8.80855C1.92969 6.59857 3.71967 4.80859 5.92964 4.80859H15.9295C18.1295 4.80859 19.9295 6.60857 19.9295 8.80855V10.2585H18.8495C18.2895 10.2585 17.7795 10.4785 17.4095 10.8585Z" fill="white" stroke="#EC5F70" stroke-width="2" stroke-linecap="round" stroke-linejoin="round"/>
<path d="M21.9338 11.2817V13.3417C21.9338 13.9017 21.4737 14.3617 20.9037 14.3617H18.9737C17.8937 14.3617 16.9038 13.5717 16.8138 12.4917C16.7538 11.8617 16.9937 11.2717 17.4137 10.8617C17.7837 10.4817 18.2938 10.2617 18.8538 10.2617H20.9037C21.4737 10.2617 21.9338 10.7217 21.9338 11.2817Z" fill="white" stroke="#EC5F70" stroke-width="2" stroke-linecap="round" stroke-linejoin="round"/>
</svg>
