<svg width="23" height="21" viewBox="0 0 23 21" fill="none" xmlns="http://www.w3.org/2000/svg">
<path d="M12.9296 9.30859H6.92969" stroke="#EC5F70" stroke-width="2" stroke-linecap="round" stroke-linejoin="round"/>
<path d="M1.92969 9.30992V4.68996C1.92969 2.64998 3.57967 1 5.61965 1H11.2396C13.2796 1 14.9295 2.26999 14.9295 4.30996" stroke="#EC5F70" stroke-width="2" stroke-linecap="round" stroke-linejoin="round"/>
<path d="M17.4095 10.3585C16.9095 10.8385 16.6695 11.5785 16.8695 12.3385C17.1195 13.2685 18.0395 13.8585 18.9995 13.8585H19.9295V15.3085C19.9295 17.5184 18.1395 19.3084 15.9295 19.3084H5.92964C3.71967 19.3084 1.92969 17.5184 1.92969 15.3085V8.30855C1.92969 6.09857 3.71967 4.30859 5.92964 4.30859H15.9295C18.1295 4.30859 19.9295 6.10857 19.9295 8.30855V9.75853H18.8495C18.2895 9.75853 17.7795 9.97853 17.4095 10.3585Z" stroke="#EC5F70" stroke-width="2" stroke-linecap="round" stroke-linejoin="round"/>
<path d="M21.9338 10.7817V12.8417C21.9338 13.4017 21.4737 13.8617 20.9037 13.8617H18.9737C17.8937 13.8617 16.9038 13.0717 16.8138 11.9917C16.7538 11.3617 16.9937 10.7717 17.4137 10.3617C17.7837 9.98172 18.2938 9.76172 18.8538 9.76172H20.9037C21.4737 9.76172 21.9338 10.2217 21.9338 10.7817Z" stroke="#EC5F70" stroke-width="2" stroke-linecap="round" stroke-linejoin="round"/>
</svg>
