<svg width="22" height="16" viewBox="0 0 22 16" fill="none" xmlns="http://www.w3.org/2000/svg">
<path d="M12.4595 6H14.4267V6.757C15.0933 6.30422 15.8683 6.04398 16.669 6.00406C17.4696 5.96414 18.266 6.14604 18.9729 6.53035C19.6798 6.91465 20.2708 7.48693 20.6828 8.18608C21.0948 8.88522 21.3122 9.68499 21.312 10.5V16H19.3448V10.5C19.3448 9.07 18.189 8 16.8858 8C15.5825 8 14.4267 9.07 14.4267 10.5V16H12.4595V6ZM10.4923 0V2H2.62346V7H10.4923V9H2.62346V14H10.4923V16H0.65625V0H10.4923Z" fill="white"/>
</svg>
