<svg width="30" height="30" viewBox="0 0 30 30" fill="none" xmlns="http://www.w3.org/2000/svg">
<path d="M14.8678 21.9771C13.6569 21.9771 12.4318 21.6701 11.4774 21.0702L2.90152 15.5868C1.30602 14.5683 0.351562 12.8521 0.351562 10.9825C0.351562 9.11282 1.30602 7.39665 2.90152 6.3781L11.4916 0.908672C13.4005 -0.305206 16.3778 -0.305206 18.2725 0.922625L26.8056 6.40601C28.3869 7.42455 29.3413 9.14072 29.3413 10.9964C29.3413 12.8521 28.3869 14.5683 26.8056 15.5868L18.2725 21.0702C17.318 21.6841 16.0929 21.9771 14.8678 21.9771ZM14.8678 2.09465C14.0558 2.09465 13.2438 2.27603 12.6597 2.6667L4.08391 8.13613C3.08672 8.77796 2.50265 9.81045 2.50265 10.9825C2.50265 12.1545 3.07247 13.1869 4.08391 13.8288L12.6597 19.3121C13.8421 20.0656 15.922 20.0656 17.1044 19.3121L25.6375 13.8288C26.6347 13.1869 27.2045 12.1545 27.2045 10.9825C27.2045 9.81045 26.6347 8.77796 25.6375 8.13613L17.1044 2.65275C16.5061 2.28998 15.694 2.09465 14.8678 2.09465Z" fill="white"/>
<path d="M14.8525 29.9996C14.2257 29.9996 13.5847 29.9159 13.0718 29.7484L8.52746 28.2695C6.37638 27.5718 4.68116 25.2696 4.6954 23.0512L4.70965 16.5074C4.70965 15.9353 5.194 15.4609 5.77807 15.4609C6.36214 15.4609 6.84649 15.9353 6.84649 16.5074L6.83224 23.0512C6.83224 24.3627 7.9434 25.8696 9.21125 26.2882L13.7556 27.7672C14.3254 27.9485 15.3796 27.9485 15.9494 27.7672L20.4938 26.2882C21.7616 25.8696 22.8728 24.3627 22.8728 23.0651V16.5911C22.8728 16.019 23.3571 15.5447 23.9412 15.5447C24.5253 15.5447 25.0096 16.019 25.0096 16.5911V23.0651C25.0096 25.2836 23.3286 27.5718 21.1775 28.2834L16.6332 29.7624C16.1204 29.9159 15.4793 29.9996 14.8525 29.9996Z" fill="white"/>
<path d="M28.2481 20.2301C27.664 20.2301 27.1797 19.7557 27.1797 19.1837V10.8121C27.1797 10.24 27.664 9.76562 28.2481 9.76562C28.8322 9.76562 29.3165 10.24 29.3165 10.8121V19.1837C29.3165 19.7557 28.8322 20.2301 28.2481 20.2301Z" fill="white"/>
</svg>
