<svg width="22" height="18" viewBox="0 0 22 18" fill="none" xmlns="http://www.w3.org/2000/svg">
<path d="M20.0862 0H14.399C14.0973 0 13.808 0.105357 13.5947 0.292893C13.3814 0.48043 13.2616 0.734784 13.2616 1C13.2616 1.26522 13.3814 1.51957 13.5947 1.70711C13.808 1.89464 14.0973 2 14.399 2H16.1052V8H10.4748C11.2274 7.1395 11.6374 6.08543 11.6418 5C11.6418 3.89937 11.2287 2.82951 10.4665 1.95633C9.7044 1.08316 8.63586 0.455463 7.42662 0.170595C6.21737 -0.114273 4.935 -0.0403951 3.77838 0.38077C2.62177 0.801936 1.65553 1.54685 1.02952 2.5C0.949416 2.61384 0.896122 2.74065 0.872799 2.87294C0.849476 3.00522 0.856598 3.14027 0.893744 3.27008C0.93089 3.3999 0.997303 3.52184 1.08905 3.62867C1.18079 3.7355 1.296 3.82505 1.42784 3.89201C1.55968 3.95897 1.70547 4.00198 1.85656 4.01849C2.00766 4.03499 2.16099 4.02466 2.30746 3.9881C2.45393 3.95154 2.59056 3.8895 2.70925 3.80566C2.82794 3.72182 2.92628 3.61788 2.99843 3.5C3.2979 3.04398 3.72863 2.66528 4.24732 2.40198C4.766 2.13868 5.35438 2.00004 5.95333 2C6.55227 1.99996 7.14068 2.13852 7.65941 2.40175C8.17814 2.66498 8.60893 3.04362 8.90849 3.4996C9.20804 3.95558 9.3658 4.47285 9.36591 4.99942C9.36603 5.52599 9.20849 6.04332 8.90914 6.4994C8.60979 6.95548 8.17917 7.33426 7.66055 7.59767C7.14193 7.86108 6.55358 7.99984 5.95464 8C5.65297 8 5.36366 8.10536 5.15035 8.29289C4.93704 8.48043 4.8172 8.73478 4.8172 9C4.8172 9.26522 4.93704 9.51957 5.15035 9.70711C5.36366 9.89464 5.65297 10 5.95464 10C6.55358 10.0002 7.14193 10.1389 7.66055 10.4023C8.17917 10.6657 8.60979 11.0445 8.90914 11.5006C9.20849 11.9567 9.36603 12.474 9.36591 13.0006C9.3658 13.5271 9.20804 14.0444 8.90849 14.5004C8.60893 14.9564 8.17814 15.335 7.65941 15.5982C7.14068 15.8615 6.55227 16 5.95333 16C5.35438 16 4.766 15.8613 4.24732 15.598C3.72863 15.3347 3.2979 14.956 2.99843 14.5C2.84285 14.2789 2.59543 14.1198 2.30864 14.0563C2.02184 13.9929 1.71823 14.0302 1.46216 14.1602C1.20609 14.2903 1.0177 14.5029 0.936939 14.753C0.856174 15.0031 0.889382 15.2711 1.02952 15.5C1.65553 16.4531 2.62177 17.1981 3.77838 17.6192C4.935 18.0404 6.21737 18.1143 7.42662 17.8294C8.63586 17.5445 9.7044 16.9168 10.4665 16.0437C11.2287 15.1705 11.6418 14.1006 11.6418 13C11.6374 11.9146 11.2274 10.8605 10.4748 10H16.1052V17C16.1052 17.2652 16.225 17.5196 16.4383 17.7071C16.6516 17.8946 16.9409 18 17.2426 18C17.5443 18 17.8336 17.8946 18.0469 17.7071C18.2602 17.5196 18.38 17.2652 18.38 17V2H20.0862C20.3879 2 20.6772 1.89464 20.8905 1.70711C21.1038 1.51957 21.2236 1.26522 21.2236 1C21.2236 0.734784 21.1038 0.48043 20.8905 0.292893C20.6772 0.105357 20.3879 0 20.0862 0Z" fill="white"/>
</svg>
