<svg width="24" height="24" viewBox="0 0 24 24" fill="none" xmlns="http://www.w3.org/2000/svg">
<path d="M17 0.75C17.3315 0.75 17.6495 0.881696 17.8839 1.11612C18.1183 1.35054 18.25 1.66848 18.25 2V3.25H20.75C21.3807 3.2498 21.9882 3.48801 22.4507 3.91687C22.9132 4.34573 23.1964 4.93356 23.2438 5.5625L23.25 5.75V20.75C23.2502 21.3807 23.012 21.9882 22.5831 22.4507C22.1543 22.9132 21.5664 23.1964 20.9375 23.2438L20.75 23.25H3.25C2.61928 23.2502 2.01179 23.012 1.54932 22.5831C1.08684 22.1543 0.803554 21.5664 0.75625 20.9375L0.75 20.75V5.75C0.749801 5.11928 0.988008 4.51179 1.41687 4.04931C1.84573 3.58684 2.43356 3.30355 3.0625 3.25625L3.25 3.25H5.75V2C5.75 1.66848 5.8817 1.35054 6.11612 1.11612C6.35054 0.881696 6.66848 0.75 7 0.75C7.33152 0.75 7.64946 0.881696 7.88388 1.11612C8.1183 1.35054 8.25 1.66848 8.25 2V3.25H15.75V2C15.75 1.66848 15.8817 1.35054 16.1161 1.11612C16.3505 0.881696 16.6685 0.75 17 0.75ZM15.53 8.72375L10.2275 14.0263L8.45875 12.2587C8.223 12.0311 7.90725 11.9051 7.5795 11.9079C7.25175 11.9108 6.93824 12.0422 6.70648 12.274C6.47472 12.5057 6.34326 12.8193 6.34041 13.147C6.33756 13.4747 6.46355 13.7905 6.69125 14.0263L9.33375 16.67C9.451 16.7874 9.59023 16.8805 9.74347 16.944C9.89672 17.0075 10.061 17.0402 10.2269 17.0402C10.3928 17.0402 10.557 17.0075 10.7103 16.944C10.8635 16.8805 11.0028 16.7874 11.12 16.67L17.2975 10.4913C17.4169 10.3759 17.5121 10.238 17.5776 10.0855C17.6431 9.933 17.6776 9.76898 17.6791 9.603C17.6805 9.43703 17.6489 9.27243 17.586 9.11881C17.5232 8.96519 17.4304 8.82562 17.313 8.70826C17.1956 8.59089 17.0561 8.49807 16.9024 8.43522C16.7488 8.37237 16.5842 8.34074 16.4182 8.34219C16.2523 8.34363 16.0883 8.37811 15.9357 8.44362C15.7832 8.50913 15.6453 8.60436 15.53 8.72375Z" fill="white"/>
</svg>
