<svg width="30" height="30" viewBox="0 0 30 30" fill="none" xmlns="http://www.w3.org/2000/svg">
<path d="M26.8012 6.90072H21.8553C21.7109 5.02083 20.9017 3.26718 19.5885 1.98855C18.2753 0.709915 16.5544 0 14.768 0C12.9816 0 11.2607 0.709915 9.94749 1.98855C8.6343 3.26718 7.82506 5.02083 7.68073 6.90072H2.73481C2.0095 6.90072 1.31389 7.20493 0.801009 7.74642C0.288131 8.28792 0 9.02234 0 9.78813V27.1126C0 27.8784 0.288131 28.6128 0.801009 29.1543C1.31389 29.6958 2.0095 30 2.73481 30H26.8012C27.5265 30 28.2221 29.6958 28.735 29.1543C29.2479 28.6128 29.536 27.8784 29.536 27.1126V9.78813C29.536 9.02234 29.2479 8.28792 28.735 7.74642C28.2221 7.20493 27.5265 6.90072 26.8012 6.90072ZM14.768 3.43583C15.6886 3.43593 16.5784 3.78624 17.2743 4.42259C17.9701 5.05894 18.4256 5.93871 18.5571 6.90072H10.9789C11.1104 5.93871 11.5659 5.05894 12.2617 4.42259C12.9576 3.78624 13.8474 3.43593 14.768 3.43583ZM26.2542 26.5351H3.28178V10.3656H7.65748V12.0981C7.65748 12.5575 7.83036 12.9982 8.13809 13.3231C8.44581 13.648 8.86318 13.8305 9.29837 13.8305C9.73356 13.8305 10.1509 13.648 10.4587 13.3231C10.7664 12.9982 10.9393 12.5575 10.9393 12.0981V10.3656H18.5967V12.0981C18.5967 12.5575 18.7696 12.9982 19.0773 13.3231C19.3851 13.648 19.8024 13.8305 20.2376 13.8305C20.6728 13.8305 21.0902 13.648 21.3979 13.3231C21.7056 12.9982 21.8785 12.5575 21.8785 12.0981V10.3656H26.2542V26.5351Z" fill="white"/>
</svg>
