<svg width="33" height="30" viewBox="0 0 33 30" fill="none" xmlns="http://www.w3.org/2000/svg">
<path d="M3.394 5.99087C2.91469 6.18178 2.53125 6.7545 2.53125 7.25905V11.7864C2.53125 12.5364 3.1475 13.15 3.90069 13.15H28.5507C29.3039 13.15 29.9201 12.5364 29.9201 11.7864V7.25905C29.9201 6.7545 29.5367 6.18178 29.0574 5.99087L16.7324 1.08182C16.4585 0.972727 15.9929 0.972727 15.719 1.08182L9.09086 3.72727" stroke="white" stroke-width="2" stroke-miterlimit="10" stroke-linecap="round" stroke-linejoin="round"/>
<path d="M29.9201 28.1499H2.53125V24.0589C2.53125 23.3089 3.1475 22.6953 3.90069 22.6953H28.5507C29.3039 22.6953 29.9201 23.3089 29.9201 24.0589V28.1499Z" stroke="white" stroke-width="2" stroke-miterlimit="10" stroke-linecap="round" stroke-linejoin="round"/>
<path d="M5.26562 22.6939V13.1484" stroke="white" stroke-width="2" stroke-miterlimit="10" stroke-linecap="round" stroke-linejoin="round"/>
<path d="M10.7422 22.6939V13.1484" stroke="white" stroke-width="2" stroke-miterlimit="10" stroke-linecap="round" stroke-linejoin="round"/>
<path d="M16.2266 22.6939V13.1484" stroke="white" stroke-width="2" stroke-miterlimit="10" stroke-linecap="round" stroke-linejoin="round"/>
<path d="M21.6953 22.6939V13.1484" stroke="white" stroke-width="2" stroke-miterlimit="10" stroke-linecap="round" stroke-linejoin="round"/>
<path d="M27.1719 22.6939V13.1484" stroke="white" stroke-width="2" stroke-miterlimit="10" stroke-linecap="round" stroke-linejoin="round"/>
<path d="M1.15625 28.1484H31.284" stroke="white" stroke-width="2" stroke-miterlimit="10" stroke-linecap="round" stroke-linejoin="round"/>
<path d="M16.2182 9.73935C17.3527 9.73935 18.2724 8.82357 18.2724 7.69389C18.2724 6.56421 17.3527 5.64844 16.2182 5.64844C15.0838 5.64844 14.1641 6.56421 14.1641 7.69389C14.1641 8.82357 15.0838 9.73935 16.2182 9.73935Z" stroke="white" stroke-width="2" stroke-miterlimit="10" stroke-linecap="round" stroke-linejoin="round"/>
</svg>
