<svg width="30" height="30" viewBox="0 0 30 30" fill="none" xmlns="http://www.w3.org/2000/svg">
<path d="M13.2393 27.5537C13.1431 27.9248 13.071 28.3008 13.023 28.6816C12.9749 29.0625 12.9412 29.4531 12.922 29.8535C11.6913 29.707 10.5184 29.4141 9.40306 28.9746C8.28777 28.5352 7.2542 27.9736 6.30236 27.29C5.35052 26.6064 4.4852 25.8154 3.70642 24.917C2.92764 24.0186 2.26423 23.042 1.7162 21.9873C1.16817 20.9326 0.74513 19.8193 0.447078 18.6475C0.149026 17.4756 0 16.2598 0 15C0 13.623 0.173063 12.2949 0.519188 11.0156C0.865313 9.73633 1.36046 8.54004 2.00464 7.42676C2.64882 6.31348 3.41798 5.30273 4.31214 4.39453C5.2063 3.48633 6.20621 2.70508 7.31189 2.05078C8.41757 1.39648 9.59055 0.893555 10.8308 0.541992C12.0711 0.19043 13.3835 0.00976562 14.768 0C16.1237 0 17.4264 0.175781 18.6763 0.527344C19.9262 0.878906 21.104 1.38672 22.2097 2.05078C23.3154 2.71484 24.3105 3.49609 25.195 4.39453C26.0796 5.29297 26.8535 6.30859 27.5169 7.44141C28.1803 8.57422 28.6755 9.76562 29.0024 11.0156C29.3293 12.2656 29.5072 13.5938 29.536 15H28.512C28.3774 14.7754 28.238 14.5557 28.0938 14.3408C27.9496 14.126 27.7813 13.9209 27.589 13.7256C27.5314 12.876 27.3823 12.0508 27.142 11.25H9.47517C9.39826 11.875 9.34057 12.4951 9.30211 13.1104C9.26365 13.7256 9.23961 14.3555 9.23 15C9.23 15.6348 9.24923 16.2598 9.28769 16.875C9.32615 17.4902 9.38864 18.1152 9.47517 18.75H14.768C14.768 19.0625 14.792 19.375 14.8401 19.6875C14.8882 20 14.9507 20.3125 15.0276 20.625H9.79245C9.90783 21.1816 10.0617 21.792 10.254 22.4561C10.4462 23.1201 10.6866 23.7695 10.975 24.4043C11.2635 25.0391 11.5952 25.6348 11.9702 26.1914C12.3451 26.748 12.7682 27.2021 13.2393 27.5537ZM26.4353 9.375C26.0603 8.58398 25.6181 7.8418 25.1085 7.14844C24.5989 6.45508 24.022 5.82031 23.3779 5.24414C22.7337 4.66797 22.051 4.15527 21.33 3.70605C20.6089 3.25684 19.8301 2.89062 18.9936 2.60742C19.3397 3.0957 19.6474 3.61328 19.9166 4.16016C20.1858 4.70703 20.431 5.26855 20.6521 5.84473C20.8733 6.4209 21.0607 7.00684 21.2146 7.60254C21.3684 8.19824 21.503 8.78906 21.6184 9.375H26.4353ZM14.768 1.875C14.2873 1.875 13.845 2.00684 13.4412 2.27051C13.0374 2.53418 12.6624 2.88086 12.3163 3.31055C11.9702 3.74023 11.6625 4.22363 11.3933 4.76074C11.1241 5.29785 10.8789 5.84961 10.6578 6.41602C10.4366 6.98242 10.2588 7.51953 10.1242 8.02734C9.98955 8.53516 9.87898 8.98438 9.79245 9.375H19.7435C19.6666 8.99414 19.5561 8.54492 19.4118 8.02734C19.2676 7.50977 19.0898 6.97266 18.8782 6.41602C18.6667 5.85938 18.4263 5.3125 18.1571 4.77539C17.8879 4.23828 17.5803 3.75 17.2341 3.31055C16.888 2.87109 16.5082 2.52441 16.0948 2.27051C15.6814 2.0166 15.2391 1.88477 14.768 1.875ZM10.5568 2.59277C9.73957 2.87598 8.96079 3.2373 8.22047 3.67676C7.48015 4.11621 6.7927 4.62891 6.15814 5.21484C5.52358 5.80078 4.9467 6.44043 4.42752 7.13379C3.90833 7.82715 3.46606 8.57422 3.1007 9.375H7.91761C8.02337 8.83789 8.15317 8.2666 8.307 7.66113C8.46083 7.05566 8.65313 6.4502 8.88387 5.84473C9.11462 5.23926 9.3646 4.6582 9.63381 4.10156C9.90302 3.54492 10.2107 3.04199 10.5568 2.59277ZM1.846 15C1.846 16.2988 2.02387 17.5488 2.37961 18.75H7.61475C7.53783 18.125 7.48015 17.5049 7.44169 16.8896C7.40323 16.2744 7.384 15.6445 7.384 15C7.384 14.3652 7.40323 13.7402 7.44169 13.125C7.48015 12.5098 7.53783 11.8848 7.61475 11.25H2.37961C2.02387 12.4512 1.846 13.7012 1.846 15ZM3.07186 20.625C3.44683 21.416 3.8891 22.1582 4.39867 22.8516C4.90825 23.5449 5.48512 24.1846 6.1293 24.7705C6.77347 25.3564 7.46572 25.8643 8.20605 26.2939C8.94637 26.7236 9.72515 27.0898 10.5424 27.3926C10.1963 26.9043 9.8886 26.3867 9.61939 25.8398C9.35018 25.293 9.10501 24.7314 8.88387 24.1553C8.66274 23.5791 8.47526 22.9932 8.32142 22.3975C8.16759 21.8018 8.02818 21.2109 7.90319 20.625H3.07186ZM25.4113 23.2764C26.0363 23.5986 26.6036 23.9941 27.1131 24.4629C27.6227 24.9316 28.0554 25.459 28.4111 26.0449C28.7668 26.6309 29.0457 27.2559 29.2476 27.9199C29.4495 28.584 29.5456 29.2773 29.536 30H27.69C27.69 29.2285 27.5458 28.501 27.2573 27.8174C26.9689 27.1338 26.5747 26.5381 26.0748 26.0303C25.5748 25.5225 24.9835 25.1172 24.3009 24.8145C23.6182 24.5117 22.9019 24.3652 22.152 24.375C21.3828 24.375 20.6665 24.5215 20.0031 24.8145C19.3397 25.1074 18.7532 25.5078 18.2437 26.0156C17.7341 26.5234 17.3351 27.124 17.0467 27.8174C16.7582 28.5107 16.614 29.2383 16.614 30H14.768C14.768 29.2871 14.8641 28.5986 15.0564 27.9346C15.2487 27.2705 15.5227 26.6406 15.8785 26.0449C16.2342 25.4492 16.6669 24.9219 17.1765 24.4629C17.686 24.0039 18.2533 23.6084 18.8782 23.2764C18.1571 22.749 17.5995 22.0898 17.2053 21.2988C16.8111 20.5078 16.614 19.6582 16.614 18.75C16.614 17.9785 16.7582 17.251 17.0467 16.5674C17.3351 15.8838 17.7293 15.2881 18.2292 14.7803C18.7292 14.2725 19.3157 13.8672 19.9887 13.5645C20.6617 13.2617 21.3828 13.1152 22.152 13.125C22.9116 13.125 23.6278 13.2715 24.3009 13.5645C24.9739 13.8574 25.5604 14.2578 26.0603 14.7656C26.5603 15.2734 26.9593 15.874 27.2573 16.5674C27.5554 17.2607 27.6996 17.9883 27.69 18.75C27.69 19.6484 27.4929 20.4932 27.0987 21.2842C26.7045 22.0752 26.1421 22.7393 25.4113 23.2764ZM22.152 22.5C22.6616 22.5 23.1375 22.4023 23.5798 22.207C24.022 22.0117 24.4162 21.7432 24.7624 21.4014C25.1085 21.0596 25.3729 20.6641 25.5556 20.2148C25.7382 19.7656 25.8344 19.2773 25.844 18.75C25.844 18.2324 25.7479 17.749 25.5556 17.2998C25.3633 16.8506 25.0989 16.4502 24.7624 16.0986C24.4258 15.7471 24.0365 15.4785 23.5942 15.293C23.1519 15.1074 22.6712 15.0098 22.152 15C21.6424 15 21.1665 15.0977 20.7242 15.293C20.282 15.4883 19.8878 15.7568 19.5416 16.0986C19.1955 16.4404 18.9311 16.8359 18.7484 17.2852C18.5658 17.7344 18.4696 18.2227 18.46 18.75C18.46 19.2676 18.5561 19.751 18.7484 20.2002C18.9407 20.6494 19.2051 21.0498 19.5416 21.4014C19.8782 21.7529 20.2675 22.0215 20.7098 22.207C21.1521 22.3926 21.6328 22.4902 22.152 22.5Z" fill="white"/>
</svg>
