<svg width="32" height="32" viewBox="0 0 32 32" fill="none" xmlns="http://www.w3.org/2000/svg">
<path d="M16 1C24.28 1 31 7.72 31 16C31 24.28 24.28 31 16 31C13.24 31 10.645 30.25 8.41 28.945L1 31L3.01004 23.5C1.73504 21.295 1 18.73 1 16C1 10.45 4.015 5.605 8.5 3.01" stroke="white" stroke-width="2" stroke-miterlimit="10" stroke-linecap="round" stroke-linejoin="round"/>
<path d="M23.5 20.7538C23.5 21.0238 23.44 21.3088 23.305 21.5788C23.17 21.8488 23.005 22.1038 22.795 22.3438C22.42 22.7488 22.015 23.0488 21.565 23.2288C21.115 23.4238 20.62 23.5138 20.095 23.5138C19.33 23.5138 18.505 23.3338 17.65 22.9588C16.78 22.5838 15.925 22.0888 15.07 21.4738C14.2 20.8438 13.39 20.1388 12.61 19.3738C11.83 18.5938 11.14 17.7688 10.51 16.9138C9.89504 16.0588 9.39999 15.2038 9.03999 14.3488C8.67999 13.4938 8.5 12.6688 8.5 11.8888C8.5 11.3788 8.58998 10.8838 8.76998 10.4338C8.94998 9.96875 9.23501 9.54875 9.64001 9.17375C10.12 8.69375 10.645 8.46875 11.2 8.46875C11.41 8.46875 11.62 8.51375 11.815 8.60375C12.01 8.69375 12.19 8.82875 12.325 9.02375L14.065 11.4837C14.2 11.6787 14.305 11.8437 14.365 12.0087C14.44 12.1737 14.47 12.3237 14.47 12.4737C14.47 12.6537 14.41 12.8338 14.305 13.0138C14.2 13.1938 14.065 13.3738 13.885 13.5538L13.315 14.1538C13.225 14.2438 13.195 14.3338 13.195 14.4538C13.195 14.5138 13.21 14.5738 13.225 14.6338C13.255 14.6938 13.27 14.7388 13.285 14.7838C13.42 15.0388 13.66 15.3538 13.99 15.7438C14.335 16.1338 14.695 16.5388 15.085 16.9288C15.49 17.3338 15.88 17.6938 16.285 18.0388C16.675 18.3688 17.005 18.5938 17.26 18.7288C17.305 18.7438 17.35 18.7738 17.395 18.7888C17.455 18.8188 17.515 18.8188 17.59 18.8188C17.725 18.8188 17.815 18.7738 17.905 18.6838L18.475 18.1138C18.67 17.9188 18.85 17.7838 19.015 17.6938C19.195 17.5888 19.36 17.5288 19.555 17.5288C19.705 17.5288 19.855 17.5588 20.02 17.6338C20.185 17.7088 20.365 17.7988 20.545 17.9338L23.035 19.7038C23.23 19.8388 23.365 20.0038 23.455 20.1838C23.455 20.3638 23.5 20.5438 23.5 20.7538Z" stroke="white" stroke-width="2" stroke-miterlimit="10"/>
</svg>
