<svg width="21" height="12" viewBox="0 0 21 12" fill="none" xmlns="http://www.w3.org/2000/svg">
<path d="M1.78144 1.48V3.58H4.60144V4.912H1.78144V7.132H4.96144V8.5H0.101438V0.111999H4.96144V1.48H1.78144ZM10.1722 1.756C10.9642 1.756 11.6042 2.008 12.0922 2.512C12.5802 3.008 12.8242 3.704 12.8242 4.6V8.5H11.1442V4.828C11.1442 4.3 11.0122 3.896 10.7482 3.616C10.4842 3.328 10.1242 3.184 9.66816 3.184C9.20416 3.184 8.83616 3.328 8.56416 3.616C8.30016 3.896 8.16816 4.3 8.16816 4.828V8.5H6.48816V1.852H8.16816V2.68C8.39216 2.392 8.67616 2.168 9.02016 2.008C9.37216 1.84 9.75616 1.756 10.1722 1.756ZM17.0258 1.744C17.5218 1.744 17.9578 1.844 18.3338 2.044C18.7098 2.236 19.0058 2.488 19.2218 2.8V1.852H20.9138V8.548C20.9138 9.164 20.7898 9.712 20.5418 10.192C20.2938 10.68 19.9218 11.064 19.4258 11.344C18.9298 11.632 18.3298 11.776 17.6258 11.776C16.6818 11.776 15.9058 11.556 15.2978 11.116C14.6978 10.676 14.3578 10.076 14.2778 9.316H15.9458C16.0338 9.62 16.2218 9.86 16.5098 10.036C16.8058 10.22 17.1618 10.312 17.5778 10.312C18.0658 10.312 18.4618 10.164 18.7658 9.868C19.0698 9.58 19.2218 9.14 19.2218 8.548V7.516C19.0058 7.828 18.7058 8.088 18.3218 8.296C17.9458 8.504 17.5138 8.608 17.0258 8.608C16.4658 8.608 15.9538 8.464 15.4898 8.176C15.0258 7.888 14.6578 7.484 14.3857 6.964C14.1217 6.436 13.9897 5.832 13.9897 5.152C13.9897 4.48 14.1217 3.884 14.3857 3.364C14.6578 2.844 15.0218 2.444 15.4778 2.164C15.9418 1.884 16.4578 1.744 17.0258 1.744ZM19.2218 5.176C19.2218 4.768 19.1418 4.42 18.9818 4.132C18.8218 3.836 18.6058 3.612 18.3338 3.46C18.0618 3.3 17.7698 3.22 17.4578 3.22C17.1458 3.22 16.8578 3.296 16.5938 3.448C16.3298 3.6 16.1138 3.824 15.9458 4.12C15.7858 4.408 15.7058 4.752 15.7058 5.152C15.7058 5.552 15.7858 5.904 15.9458 6.208C16.1138 6.504 16.3298 6.732 16.5938 6.892C16.8658 7.052 17.1538 7.132 17.4578 7.132C17.7698 7.132 18.0618 7.056 18.3338 6.904C18.6058 6.744 18.8218 6.52 18.9818 6.232C19.1418 5.936 19.2218 5.584 19.2218 5.176Z" fill="black" fill-opacity="0.5"/>
</svg>
