<svg width="13" height="14" viewBox="0 0 13 14" fill="none" xmlns="http://www.w3.org/2000/svg">
<path d="M0.453594 11.589C0.13168 11.9307 0.147706 12.4686 0.489389 12.7905C0.831072 13.1125 1.36902 13.0964 1.69094 12.7548L0.453594 11.589ZM12.448 0.974076C12.434 0.504841 12.0423 0.135784 11.573 0.149764L3.92641 0.377565C3.45718 0.391544 3.08812 0.783265 3.1021 1.2525C3.11608 1.72173 3.5078 2.09079 3.97703 2.07681L10.774 1.87432L10.9765 8.67131C10.9905 9.14054 11.3822 9.5096 11.8514 9.49562C12.3207 9.48164 12.6897 9.08992 12.6758 8.62068L12.448 0.974076ZM1.69094 12.7548L12.217 1.58226L10.9797 0.41651L0.453594 11.589L1.69094 12.7548Z" fill="#EC3737"/>
</svg>
