<svg width="58" height="58" viewBox="0 0 58 58" fill="none" xmlns="http://www.w3.org/2000/svg">
<path d="M0 0H48C53.5229 0 58 4.47715 58 10V58H6C2.68629 58 0 55.3137 0 52V0Z" fill="white"/>
<path d="M33.6512 8.02469C33.6512 7.47495 33.8104 7.04457 34.1286 6.73354C34.4541 6.4225 34.8701 6.26699 35.3764 6.26699C35.8827 6.26699 36.295 6.4225 36.6133 6.73354C36.9388 7.04457 37.1015 7.47495 37.1015 8.02469C37.1015 8.58165 36.9388 9.01565 36.6133 9.32669C36.295 9.63772 35.8827 9.79324 35.3764 9.79324C34.8701 9.79324 34.4541 9.63772 34.1286 9.32669C33.8104 9.01565 33.6512 8.58165 33.6512 8.02469ZM40.6169 6.39719L36.3529 13.9922H34.8773L39.1305 6.39719H40.6169ZM35.3655 7.17839C34.9677 7.17839 34.7688 7.46049 34.7688 8.02469C34.7688 8.59612 34.9677 8.88184 35.3655 8.88184C35.5608 8.88184 35.7127 8.81312 35.8212 8.67569C35.9297 8.53102 35.984 8.31402 35.984 8.02469C35.984 7.46049 35.7778 7.17839 35.3655 7.17839ZM38.4144 12.3538C38.4144 11.7969 38.5735 11.3665 38.8918 11.0627C39.2173 10.7517 39.6332 10.5961 40.1395 10.5961C40.6459 10.5961 41.0546 10.7517 41.3656 11.0627C41.6839 11.3665 41.843 11.7969 41.843 12.3538C41.843 12.9108 41.6839 13.3448 41.3656 13.6558C41.0546 13.9669 40.6459 14.1224 40.1395 14.1224C39.626 14.1224 39.2101 13.9669 38.8918 13.6558C38.5735 13.3448 38.4144 12.9108 38.4144 12.3538ZM40.1287 11.5075C39.7164 11.5075 39.5102 11.7896 39.5102 12.3538C39.5102 12.9253 39.7164 13.211 40.1287 13.211C40.5338 13.211 40.7363 12.9253 40.7363 12.3538C40.7363 11.7896 40.5338 11.5075 40.1287 11.5075Z" fill="#EC5F70"/>
<mask id="path-3-inside-1_20914_19396" fill="white">
<path d="M32.7714 5.7584C29.2467 4.99739 25.5683 5.44929 22.3327 7.04083C19.097 8.63236 16.4939 11.2702 14.9453 14.5266C13.3967 17.783 12.9935 21.4671 13.8011 24.9814C14.6086 28.4957 16.5796 31.6341 19.3944 33.8878C22.2092 36.1416 25.7028 37.3784 29.3086 37.3978C32.9145 37.4172 36.4211 36.218 39.26 33.9946C42.0989 31.7713 44.1035 28.6542 44.9488 25.1488C45.7941 21.6434 45.4305 17.9552 43.917 14.6824L41.3932 15.8495C42.6436 18.5536 42.944 21.6008 42.2456 24.4969C41.5472 27.3931 39.891 29.9685 37.5455 31.8054C35.2 33.6424 32.3028 34.6332 29.3236 34.6172C26.3444 34.6011 23.458 33.5793 21.1324 31.7172C18.8068 29.8552 17.1783 27.2621 16.5111 24.3586C15.8439 21.4551 16.177 18.4113 17.4565 15.7208C18.7359 13.0303 20.8867 10.8509 23.56 9.53599C26.2333 8.22106 29.2724 7.84769 32.1845 8.47644L32.7714 5.7584Z"/>
</mask>
<path d="M32.7714 5.7584C29.2467 4.99739 25.5683 5.44929 22.3327 7.04083C19.097 8.63236 16.4939 11.2702 14.9453 14.5266C13.3967 17.783 12.9935 21.4671 13.8011 24.9814C14.6086 28.4957 16.5796 31.6341 19.3944 33.8878C22.2092 36.1416 25.7028 37.3784 29.3086 37.3978C32.9145 37.4172 36.4211 36.218 39.26 33.9946C42.0989 31.7713 44.1035 28.6542 44.9488 25.1488C45.7941 21.6434 45.4305 17.9552 43.917 14.6824L41.3932 15.8495C42.6436 18.5536 42.944 21.6008 42.2456 24.4969C41.5472 27.3931 39.891 29.9685 37.5455 31.8054C35.2 33.6424 32.3028 34.6332 29.3236 34.6172C26.3444 34.6011 23.458 33.5793 21.1324 31.7172C18.8068 29.8552 17.1783 27.2621 16.5111 24.3586C15.8439 21.4551 16.177 18.4113 17.4565 15.7208C18.7359 13.0303 20.8867 10.8509 23.56 9.53599C26.2333 8.22106 29.2724 7.84769 32.1845 8.47644L32.7714 5.7584Z" fill="#EC5F70" stroke="#EC5F70" stroke-width="0.2" mask="url(#path-3-inside-1_20914_19396)"/>
<path d="M20.9838 21.9467C19.9811 21.4134 19.4798 20.5761 19.4798 19.4347C19.4798 18.8587 19.6291 18.3361 19.9278 17.8667C20.2264 17.3867 20.6798 17.0081 21.2878 16.7307C21.8958 16.4427 22.6424 16.2987 23.5278 16.2987C24.4131 16.2987 25.1544 16.4427 25.7518 16.7307C26.3598 17.0081 26.8131 17.3867 27.1118 17.8667C27.4104 18.3361 27.5598 18.8587 27.5598 19.4347C27.5598 20.0107 27.4211 20.5121 27.1438 20.9387C26.8771 21.3654 26.5144 21.7014 26.0558 21.9467C26.6318 22.2241 27.0744 22.6081 27.3837 23.0987C27.6931 23.5787 27.8478 24.1441 27.8478 24.7947C27.8478 25.5521 27.6558 26.2081 27.2718 26.7627C26.8878 27.3067 26.3651 27.7227 25.7038 28.0107C25.0531 28.2988 24.3278 28.4428 23.5278 28.4428C22.7278 28.4428 21.9971 28.2988 21.3358 28.0107C20.6851 27.7227 20.1678 27.3067 19.7838 26.7627C19.3998 26.2081 19.2078 25.5521 19.2078 24.7947C19.2078 24.1334 19.3624 23.5627 19.6718 23.0827C19.9811 22.5921 20.4184 22.2134 20.9838 21.9467ZM24.9038 19.8507C24.9038 19.4134 24.7758 19.0774 24.5198 18.8427C24.2744 18.5974 23.9438 18.4747 23.5278 18.4747C23.1118 18.4747 22.7758 18.5974 22.5198 18.8427C22.2744 19.0881 22.1518 19.4294 22.1518 19.8667C22.1518 20.2827 22.2798 20.6134 22.5358 20.8587C22.7918 21.0934 23.1224 21.2107 23.5278 21.2107C23.9331 21.2107 24.2638 21.0881 24.5198 20.8427C24.7758 20.5974 24.9038 20.2667 24.9038 19.8507ZM23.5278 23.1307C23.0264 23.1307 22.6211 23.2694 22.3118 23.5467C22.0024 23.8134 21.8478 24.1867 21.8478 24.6667C21.8478 25.1147 21.9971 25.4827 22.2958 25.7707C22.6051 26.0587 23.0158 26.2027 23.5278 26.2027C24.0398 26.2027 24.4398 26.0587 24.7278 25.7707C25.0264 25.4827 25.1758 25.1147 25.1758 24.6667C25.1758 24.1974 25.0211 23.8241 24.7118 23.5467C24.4131 23.2694 24.0184 23.1307 23.5278 23.1307ZM29.4388 22.2187C29.4388 20.3841 29.7908 18.9387 30.4948 17.8827C31.2094 16.8267 32.3561 16.2987 33.9348 16.2987C35.5134 16.2987 36.6548 16.8267 37.3588 17.8827C38.0734 18.9387 38.4308 20.3841 38.4308 22.2187C38.4308 24.0747 38.0734 25.5307 37.3588 26.5867C36.6548 27.6427 35.5134 28.1707 33.9348 28.1707C32.3561 28.1707 31.2094 27.6427 30.4948 26.5867C29.7908 25.5307 29.4388 24.0747 29.4388 22.2187ZM35.7428 22.2187C35.7428 21.1414 35.6254 20.3147 35.3908 19.7387C35.1561 19.1521 34.6708 18.8587 33.9348 18.8587C33.1988 18.8587 32.7134 19.1521 32.4788 19.7387C32.2441 20.3147 32.1268 21.1414 32.1268 22.2187C32.1268 22.9441 32.1694 23.5467 32.2548 24.0267C32.3401 24.4961 32.5108 24.8801 32.7668 25.1787C33.0334 25.4667 33.4228 25.6107 33.9348 25.6107C34.4468 25.6107 34.8308 25.4667 35.0868 25.1787C35.3534 24.8801 35.5294 24.4961 35.6148 24.0267C35.7001 23.5467 35.7428 22.9441 35.7428 22.2187Z" fill="#EC5F70"/>
<path d="M18.0272 42.228V52H16.0672V45.644L13.4492 52H11.9652L9.33323 45.644V52H7.37323V42.228H9.59923L12.7072 49.494L15.8152 42.228H18.0272ZM19.461 48.094C19.461 47.31 19.615 46.6147 19.923 46.008C20.2404 45.4013 20.665 44.9347 21.197 44.608C21.7384 44.2813 22.3404 44.118 23.003 44.118C23.5817 44.118 24.0857 44.2347 24.515 44.468C24.9537 44.7013 25.3037 44.9953 25.565 45.35V44.244H27.539V52H25.565V50.866C25.313 51.23 24.963 51.5333 24.515 51.776C24.0764 52.0093 23.5677 52.126 22.989 52.126C22.3357 52.126 21.7384 51.958 21.197 51.622C20.665 51.286 20.2404 50.8147 19.923 50.208C19.615 49.592 19.461 48.8873 19.461 48.094ZM25.565 48.122C25.565 47.646 25.4717 47.24 25.285 46.904C25.0984 46.5587 24.8464 46.2973 24.529 46.12C24.2117 45.9333 23.871 45.84 23.507 45.84C23.143 45.84 22.807 45.9287 22.499 46.106C22.191 46.2833 21.939 46.5447 21.743 46.89C21.5564 47.226 21.463 47.6273 21.463 48.094C21.463 48.5607 21.5564 48.9713 21.743 49.326C21.939 49.6713 22.191 49.9373 22.499 50.124C22.8164 50.3107 23.1524 50.404 23.507 50.404C23.871 50.404 24.2117 50.3153 24.529 50.138C24.8464 49.9513 25.0984 49.69 25.285 49.354C25.4717 49.0087 25.565 48.598 25.565 48.122ZM31.7353 45.854V49.606C31.7353 49.8673 31.796 50.0587 31.9173 50.18C32.048 50.292 32.2626 50.348 32.5613 50.348H33.4713V52H32.2393C30.5873 52 29.7613 51.1973 29.7613 49.592V45.854H28.8373V44.244H29.7613V42.326H31.7353V44.244H33.4713V45.854H31.7353ZM34.377 48.122C34.377 47.3193 34.5404 46.6193 34.867 46.022C35.1937 45.4153 35.6464 44.9487 36.225 44.622C36.8037 44.286 37.4664 44.118 38.213 44.118C39.1744 44.118 39.9677 44.3607 40.593 44.846C41.2277 45.322 41.6524 45.994 41.867 46.862H39.753C39.641 46.526 39.4497 46.2647 39.179 46.078C38.9177 45.882 38.591 45.784 38.199 45.784C37.639 45.784 37.1957 45.9893 36.869 46.4C36.5424 46.8013 36.379 47.3753 36.379 48.122C36.379 48.8593 36.5424 49.4333 36.869 49.844C37.1957 50.2453 37.639 50.446 38.199 50.446C38.9924 50.446 39.5104 50.0913 39.753 49.382H41.867C41.6524 50.222 41.2277 50.8893 40.593 51.384C39.9584 51.8787 39.165 52.126 38.213 52.126C37.4664 52.126 36.8037 51.9627 36.225 51.636C35.6464 51.3 35.1937 50.8333 34.867 50.236C34.5404 49.6293 34.377 48.9247 34.377 48.122ZM47.6709 44.132C48.2589 44.132 48.7816 44.2627 49.2389 44.524C49.6962 44.776 50.0509 45.154 50.3029 45.658C50.5642 46.1527 50.6949 46.75 50.6949 47.45V52H48.7349V47.716C48.7349 47.1 48.5809 46.6287 48.2729 46.302C47.9649 45.966 47.5449 45.798 47.0129 45.798C46.4716 45.798 46.0422 45.966 45.7249 46.302C45.4169 46.6287 45.2629 47.1 45.2629 47.716V52H43.3029V41.64H45.2629V45.21C45.5149 44.874 45.8509 44.6127 46.2709 44.426C46.6909 44.23 47.1576 44.132 47.6709 44.132Z" fill="#EC5F70"/>
</svg>
