<svg width="20" height="14" viewBox="0 0 20 14" fill="none" xmlns="http://www.w3.org/2000/svg">
<path d="M6.30202 0.284C7.08602 0.284 7.78202 0.424 8.39002 0.704C9.00602 0.983999 9.48602 1.388 9.83002 1.916C10.174 2.444 10.346 3.06 10.346 3.764V3.968H8.83402V3.788C8.83402 3.284 8.71002 2.868 8.46202 2.54C8.22202 2.204 7.91002 1.956 7.52602 1.796C7.14202 1.636 6.73402 1.556 6.30202 1.556C5.62202 1.556 5.03802 1.724 4.55002 2.06C4.06202 2.388 3.80602 2.908 3.78202 3.62H5.12602V4.916H3.79402V12.5H2.24602V4.916H0.914016V3.62H2.24602C2.27002 2.916 2.45402 2.316 2.79802 1.82C3.15002 1.316 3.62602 0.935999 4.22602 0.679999C4.82602 0.416 5.51802 0.284 6.30202 0.284ZM8.42114 7.076C8.14114 7.076 7.91314 7.132 7.73714 7.244C7.56114 7.356 7.47314 7.54 7.47314 7.796C7.47314 7.956 7.51714 8.096 7.60514 8.216C7.69314 8.336 7.81314 8.428 7.96514 8.492C8.13314 8.46 8.33314 8.444 8.56514 8.444C9.38914 8.444 10.0331 8.644 10.4971 9.044C10.9611 9.444 11.2331 9.956 11.3131 10.58H9.82514C9.76914 10.34 9.62914 10.132 9.40514 9.956C9.18114 9.772 8.89314 9.68 8.54114 9.68C8.12514 9.68 7.78914 9.812 7.53314 10.076C7.28514 10.34 7.16114 10.684 7.16114 11.108C7.16114 11.532 7.28514 11.876 7.53314 12.14C7.78914 12.396 8.12514 12.524 8.54114 12.524C8.87714 12.524 9.15714 12.44 9.38114 12.272C9.61314 12.096 9.76114 11.888 9.82514 11.648H11.3131C11.2411 12.288 10.9531 12.808 10.4491 13.208C9.95314 13.608 9.31714 13.808 8.54114 13.808C7.94914 13.808 7.43314 13.692 6.99314 13.46C6.56114 13.228 6.22914 12.908 5.99714 12.5C5.76514 12.084 5.64914 11.608 5.64914 11.072C5.64914 10.6 5.74914 10.18 5.94914 9.812C6.15714 9.436 6.44514 9.132 6.81314 8.9C6.53314 8.748 6.31714 8.556 6.16514 8.324C6.01314 8.084 5.93714 7.808 5.93714 7.496C5.93714 7.016 6.10914 6.64 6.45314 6.368C6.80514 6.096 7.27714 5.96 7.86914 5.96H9.06914V4.916H4.61714V3.62H12.1411V4.916H10.5451V7.076H8.42114ZM16.4124 5.756C17.2044 5.756 17.8444 6.008 18.3324 6.512C18.8204 7.008 19.0644 7.704 19.0644 8.6V12.5H17.3844V8.828C17.3844 8.3 17.2524 7.896 16.9884 7.616C16.7244 7.328 16.3644 7.184 15.9084 7.184C15.4444 7.184 15.0764 7.328 14.8044 7.616C14.5404 7.896 14.4084 8.3 14.4084 8.828V12.5H12.7284V5.852H14.4084V6.68C14.6324 6.392 14.9164 6.168 15.2604 6.008C15.6124 5.84 15.9964 5.756 16.4124 5.756Z" fill="black" fill-opacity="0.5"/>
</svg>
